#N canvas 2 117 1265 891 10;
#X obj 744 44 tgl 15 0 empty onoff empty 17 7 0 10 -262144 -1 -1 0
1;
#X obj 832 182 bng 15 250 50 0 empty empty empty 17 7 0 10 -262144
-1 -1;
#X obj 901 184 bng 15 250 50 0 empty empty empty 17 7 0 10 -262144
-1 -1;
#X obj 880 183 bng 15 250 50 0 empty empty empty 17 7 0 10 -262144
-1 -1;
#X obj 857 183 bng 15 250 50 0 empty empty empty 17 7 0 10 -262144
-1 -1;
#X floatatom 927 159 5 0 0 0 - - -, f 5;
#X obj 1400 112 hradio 15 1 0 4 empty empty empty 0 -8 0 10 -262144
-1 -1 2;
#X obj 673 204 bng 15 250 50 0 empty empty empty 17 7 0 10 -262144
-1 -1;
#X obj 730 202 bng 15 250 50 0 empty empty empty 17 7 0 10 -262144
-1 -1;
#X obj 756 203 bng 15 250 50 0 empty empty empty 17 7 0 10 -262144
-1 -1;
#X obj 724 227 1.2;
#X floatatom 613 360 5 0 0 0 - - -, f 5;
#X floatatom 667 173 5 0 0 0 - - -, f 5;
#X obj 700 204 bng 15 250 50 0 empty empty empty 17 7 0 10 -262144
-1 -1;
#X obj 680 227 1.1111;
#X obj 655 226 1;
#X obj 629 498 phasor~;
#X obj 750 227 1.5;
#X obj 677 409 dbtorms;
#X obj 647 533 *~;
#X obj 738 432 dbtorms;
#X obj 419 120 vsl 15 128 0 127 0 0 empty empty empty 0 -9 0 10 -262144
-1 -1 0 1;
#X obj 693 533 *~;
#X obj 572 498 phasor~;
#X obj 614 531 *~;
#X obj 608 429 dbtorms;
#X obj 321 118 vsl 15 128 0 127 0 0 empty empty empty 0 -9 0 10 -262144
-1 -1 0 1;
#X obj 460 477 *;
#X floatatom 738 355 5 0 0 0 - - -, f 5;
#X obj 876 526 *~;
#X obj 1216 93 vsl 15 128 10 127 0 0 empty empty empty 0 -9 0 10 -262144
-1 -1 0 1;
#X text 1292 49 Gain;
#X obj 877 476 clip~ -1 1;
#X obj 1301 91 vsl 15 128 1 80 0 0 empty empty empty 0 -9 0 10 -262144
-1 -1 0 1;
#X obj 471 348 line;
#X obj 471 327 pack f f;
#X obj 255 115 vsl 15 128 0 350 0 0 empty empty empty 0 -9 0 10 -262144
-1 -1 0 1;
#X text 249 47 Glide;
#X msg 608 451 \$1 75;
#X obj 608 474 line~;
#X msg 685 431 \$1 75;
#X obj 685 454 line~;
#X msg 740 455 \$1 75;
#X obj 744 478 line~;
#X msg 932 409 \$1 75;
#X obj 929 428 line~;
#X msg 983 456 \$1 75;
#X obj 983 478 line~;
#X obj 356 118 vsl 15 128 1 127 0 0 empty empty empty 0 -9 0 10 -262144
-1 -1 0 1;
#X obj 827 713 dac~;
#X text 745 16 On-Off;
#X text 1448 77 Lent;
#X text 1376 80 Rapide;
#X obj 1402 172 hradio 15 1 0 5 empty empty empty 0 -8 0 10 -262144
-1 -1 3;
#X text 1375 146 Léger;
#X text 1447 143 Dense;
#X obj 662 121 f;
#X obj 705 175 select 0 1 2 3 4;
#X obj 777 203 bng 15 250 50 0 empty empty empty 17 7 0 10 -262144
-1 -1;
#X obj 779 227 2;
#X obj 488 209 4;
#X obj 553 212 7;
#X obj 494 156 select 1 2 3 4 5 6 7 8;
#X floatatom 497 247 5 0 0 0 - - -, f 5;
#X obj 527 186 bng 15 250 50 0 empty empty empty 17 7 0 10 -262144
-1 -1;
#X obj 554 185 bng 15 250 50 0 empty empty empty 17 7 0 10 -262144
-1 -1;
#X obj 502 186 bng 15 250 50 0 empty empty empty 17 7 0 10 -262144
-1 -1;
#X obj 580 183 bng 15 250 50 0 empty empty empty 17 7 0 10 -262144
-1 -1;
#X obj 521 210 6;
#X obj 579 213 9;
#X floatatom 494 132 5 0 0 0 - - -, f 5;
#X obj 844 361 line;
#X obj 843 340 pack f 10;
#X obj 968 92 select 0 1 2 3 4;
#X text 466 63 générateur de temps forts;
#X obj 620 601 lop~;
#X obj 454 390 receive detune;
#X obj 461 301 receive Glide;
#X obj 216 360 hsl 128 15 35 110 0 0 empty empty empty -2 -8 0 10 -262144
-1 -1 8467 1;
#X obj 205 479 send lop;
#X obj 682 594 mtof;
#X obj 707 263 * 110;
#X obj 933 588 mtof;
#X obj 920 607 lop~;
#X obj 935 520 receive lop2;
#X obj 1141 262 hsl 128 15 50 127 0 0 empty empty empty -2 -8 0 10
-262144 -1 -1 8247 1;
#X obj 1141 281 send lop2;
#X msg 981 240 100;
#X obj 924 341 r Gain;
#X obj 1328 207 s Gain;
#X obj 1322 262 hsl 128 15 0 127 0 0 empty empty empty -2 -8 0 10 -262144
-1 -1 4000 1;
#X obj 1320 286 send hip;
#X obj 1008 553 receive hip;
#X obj 920 648 hip~;
#X msg 1035 240 40;
#X obj 241 547 vsl 15 128 0.001 127 0 0 empty empty empty 0 -9 0 10
-262144 -1 -1 0 1;
#X obj 974 215 loadbang;
#X obj 211 458 hsl 128 15 35 110 0 0 empty empty empty -2 -8 0 10 -262144
-1 -1 8467 1;
#X obj 301 549 vsl 15 128 0.001 127 0 0 empty empty empty 0 -9 0 10
-262144 -1 -1 0 1;
#X text 232 298 ====LPF====;
#X text 219 331 Fréq coupure;
#N canvas 299 139 450 300 lfo 0;
#X obj 132 69 loadbang;
#X msg 173 87 90;
#X obj 150 136 f 1;
#X obj 179 138 +;
#X obj 148 156 cos;
#X obj 151 115 metro 2;
#X obj 177 160 *;
#X obj 150 177 +;
#X obj 156 243 outlet;
#X obj 273 173 r lfoamount;
#X obj 271 101 r lfofreq;
#X obj 77 72 bng 15 250 50 0 empty empty empty 17 7 0 10 -262144 -1
-1;
#X obj 275 202 * 0.25;
#X obj 274 134 * 0.001;
#X connect 0 0 1 0;
#X connect 0 0 5 0;
#X connect 2 0 3 0;
#X connect 2 0 4 0;
#X connect 3 0 2 1;
#X connect 4 0 6 0;
#X connect 5 0 2 0;
#X connect 5 0 7 0;
#X connect 6 0 7 1;
#X connect 7 0 8 0;
#X connect 9 0 12 0;
#X connect 10 0 13 0;
#X connect 11 0 5 0;
#X connect 12 0 6 1;
#X connect 13 0 3 1;
#X restore 147 408 pd lfo;
#X obj 285 689 s lfoamount;
#X obj 210 689 s lfofreq;
#X obj 148 429 +;
#X text 237 402 ====LFO====;
#X text 221 502 LFO Fréq;
#X text 285 502 LFO Amount;
#X obj 133 364 loadbang;
#X msg 144 384 85;
#X text 1340 50 Séquenceur Aléatoire;
#X floatatom 670 356 5 0 0 0 - - -, f 5;
#X text 672 332 Sub;
#N canvas 2 95 1596 817 adsr 0;
#X obj 115 121 inlet;
#X obj 445 161 inlet;
#X text 111 96 trigger;
#X obj 115 149 sel 0;
#X obj 254 165 t b;
#X obj 176 274 f \$1;
#X obj 502 161 inlet;
#X obj 448 291 del \$2;
#X obj 468 439 line~;
#X obj 472 314 f \$4;
#X obj 511 389 pack 0 \$3;
#X obj 564 161 inlet;
#X obj 626 161 inlet;
#X obj 699 160 inlet;
#X msg 115 180 stop;
#X obj 622 316 pack 0 \$5;
#X text 445 139 level;
#X obj 511 365 * \$1;
#X obj 468 464 outlet~;
#X text 112 388 and pack with;
#X text 113 408 attack time;
#X text 41 136 if zero;
#X text 42 153 release;
#X text 22 170 and cancel;
#X text 53 187 decay;
#X text 294 282 on attack \, set a;
#X text 288 315 recall sustain value;
#X text 325 388 pack with decay time;
#X text 615 342 on release ramp;
#X text 616 359 back to zero;
#X obj 472 339 * 0.01;
#X text 57 577 Objects such as "f" and "pack" can be given dollar sign
arguments to initialize their contents from adsr's creation arguments.
Inlets are supplied to change them on the fly.;
#X text 23 12 ADSR ENVELOPE;
#X text 498 139 attack;
#X text 565 138 decay;
#X text 619 139 sustain;
#X text 696 139 release;
#X text 212 81 attack;
#X obj 214 102 moses;
#X obj 204 132 t b b;
#X msg 138 300 0;
#X text 30 283 optionally;
#X text 20 301 bash to zero;
#X text 35 256 ATTACK:;
#X text 59 487 When you send this patch a positive trigger it schedules
a line~ to do an attack and decay \, and if zero \, it starts the release
ramp.;
#X text 505 639 Updated for Pd version 0.37;
#X text 265 99 test for negative trigger;
#X text 263 123 if so \, zero;
#X text 264 139 the output;
#X text 288 175 in any case;
#X text 313 365 multiply by peak level;
#X text 290 296 delay for sustain;
#X text 286 338 convert from percent;
#X text 165 350 ... then;
#X text 113 369 recall peak level;
#X text 449 123 peak;
#X text 291 159 ... do this;
#X text 57 539 Negative triggers cause the output to jump to zero and
then attack (instead of attacking from the current location).;
#X text 218 11 Arguments: level \, attack time \, decay time \, sustain
level \, release time. A \, D \, and R are in msec and S is in percent.
This patch is used as an abstraction in various examples.;
#X obj 176 301 pack 0.2 \$2;
#X connect 0 0 3 0;
#X connect 1 0 5 1;
#X connect 1 0 17 1;
#X connect 3 0 14 0;
#X connect 3 0 15 0;
#X connect 3 1 38 0;
#X connect 4 0 5 0;
#X connect 4 0 7 0;
#X connect 5 0 59 0;
#X connect 6 0 7 1;
#X connect 6 0 59 1;
#X connect 7 0 9 0;
#X connect 8 0 18 0;
#X connect 9 0 30 0;
#X connect 10 0 8 0;
#X connect 11 0 10 1;
#X connect 12 0 9 1;
#X connect 13 0 15 1;
#X connect 14 0 7 0;
#X connect 15 0 8 0;
#X connect 17 0 10 0;
#X connect 30 0 17 0;
#X connect 38 0 39 0;
#X connect 38 1 4 0;
#X connect 39 0 4 0;
#X connect 39 1 40 0;
#X connect 40 0 8 0;
#X connect 59 0 8 0;
#X restore 1096 622 pd adsr;
#X text 637 309 Fréquence (Hz):;
#X text 1199 372 attack;
#X text 1262 370 decay;
#X text 1315 370 sustain;
#X text 1379 370 release;
#X text 1150 373 hold;
#X obj 1150 410 vsl 15 128 0 1000 0 0 empty empty empty 0 -9 0 10 -262144
-1 -1 0 1;
#X obj 1212 406 vsl 15 128 0 2000 0 0 empty empty empty 0 -9 0 10 -262144
-1 -1 0 1;
#X obj 1274 407 vsl 15 128 0 1000 0 0 empty empty empty 0 -9 0 10 -262144
-1 -1 2286 1;
#X obj 1330 410 vsl 15 128 0 100 0 0 empty empty empty 0 -9 0 10 -262144
-1 -1 0 1;
#X obj 1388 408 vsl 15 128 0 1500 0 0 empty empty empty 0 -9 0 10 -262144
-1 -1 2455 1;
#X obj 1011 502 loadbang;
#X msg 1018 526 1;
#X obj 878 447 *~;
#X obj 1134 352 bng 15 80 50 0 empty empty empty 17 7 0 10 -262144
-1 -1;
#X msg 1070 452 \; triger 0;
#X obj 1267 596 r triger;
#X obj 1072 430 del 250;
#X text 1159 230 ====LPF====;
#X text 1343 232 ====HPF====;
#X text 1211 328 ====ADSR Envellope====;
#X obj 472 373 * 0.5;
#X obj 114 94 vu 15 120 empty empty -1 -8 0 10 -66577 -1 1 0;
#X obj 594 656 env~;
#X obj 850 583 env~;
#X obj 595 679 - 100;
#X obj 850 605 - 100;
#X obj 594 698 s bassvol;
#X obj 114 47 r bassvol;
#X obj 206 117 vsl 15 128 0 127 0 0 empty empty empty 0 -9 0 10 -262144
-1 -1 0 1;
#X obj 767 681 *~;
#X obj 766 594 dbtorms;
#X msg 762 615 \$1 75;
#X obj 758 638 line~;
#X obj 171 253 s bassamp;
#X obj 767 549 receive bassamp;
#X obj 835 637 s leadvol;
#X obj 1132 98 vu 15 120 empty empty -1 -8 0 10 -66577 -1 1 0;
#X obj 1129 75 r leadvol;
#X text 123 23 ****************************BASS****************************
;
#X text 1117 16 ****************************LEAD****************************
;
#X obj 1239 201 s leadamp;
#X obj 979 387 r leadamp;
#X text 1212 53 Amp;
#X text 203 47 Amp;
#X obj 679 388 r dualosc;
#X obj 610 389 r dualosc;
#X obj 374 253 s detune;
#X obj 314 251 s dualosc;
#X obj 253 255 s Glide;
#X obj 429 254 s Sub;
#X text 318 59 Amp;
#X text 353 60 Detune;
#X text 324 44 Dual Osc:;
#X text 404 47 Sub Amp;
#X obj 1071 338 trigger b;
#X obj 1135 316 r trig;
#X obj 1328 129 s turing;
#X obj 1333 166 s test;
#X obj 967 68 r test;
#X obj 857 693 +~;
#X obj 681 701 loadbang;
#X obj 682 722 metro 100;
#X obj 1130 732 tabwrite~ leadsortie;
#X obj 1138 671 loadbang;
#X obj 1139 692 metro 100;
#X text 657 15 Turing Test :;
#X obj 969 183 table leadsortie;
#X obj 332 283 table basssortie;
#X obj 683 747 tabwrite~ basssortie;
#X obj 869 386 phasor~;
#X obj 972 633 mtof;
#X obj 929 567 line;
#X obj 978 606 line;
#X obj 982 581 pack f 200;
#X obj 928 546 pack f 200;
#X obj 184 88 ctlin 9;
#X obj 981 434 dbtorms;
#X obj 1216 70 ctlin 8;
#X obj 767 571 * 0.8;
#X obj 981 411 * 0.8;
#X obj 1286 67 ctlin 7;
#X obj 1234 233 ctlin 6;
#X obj 298 521 ctlin 4;
#X obj 933 387 * 0.5;
#X obj 925 284 select 69;
#X obj 924 241 notein;
#X obj 925 263 stripnote;
#X obj 976 340 loadbang;
#X msg 976 361 100;
#X text 611 335 Bass;
#X text 734 331 lead;
#X obj 220 521 ctlin 5;
#X obj 127 336 ctlin 0;
#X obj 392 94 ctlin 1;
#X obj 339 91 ctlin 2;
#X obj 281 91 ctlin 3;
#X obj 459 454 pack;
#X obj 458 432 + 1;
#X obj 738 408 * 1;
#X obj 608 410 * 0.9;
#X obj 456 411 * 0.00023622;
#X obj 1406 597 loadbang;
#X msg 1413 621 290;
#X obj 1345 595 loadbang;
#X obj 1673 129 notein;
#X obj 1669 153 stripnote;
#X msg 1713 204 3;
#X msg 1651 201 1;
#X msg 1582 201 0;
#X msg 1681 204 2;
#X msg 1744 207 4;
#X obj 762 707 *~ 4;
#X obj 817 406 phasor~;
#X obj 876 499 *~;
#X obj 817 384 * 1.5;
#X obj 815 427 *~ 0.1;
#X obj 663 150 random 5;
#X obj 746 138 random 7;
#X obj 872 241 * 2;
#X obj 842 316 *;
#X obj 690 497 osc~;
#X obj 1108 678 *~ 8;
#X msg 1072 381 \; pd dsp 1 \; triger 1 \;;
#X obj 832 160 select 0 1 2 3;
#X obj 1071 117 4;
#X obj 1041 119 6;
#X obj 1014 118 13;
#X obj 986 119 20;
#X msg 1352 619 180;
#X obj 823 205 0.75;
#X obj 855 204 1;
#X obj 886 206 1.5;
#X obj 916 206 2;
#X obj 937 115 1e+06;
#X obj 1522 13 loadbang;
#X msg 1542 42 2;
#X obj 1071 319 moses 4;
#X obj 738 388 r Sub;
#X obj 682 574 r lop;
#X obj 924 304 s onoff;
#N canvas 24 105 1254 931 turingsync 1;
#X obj 364 76 bng 15 100 50 0 empty empty empty 0 -6 0 8 -262144 -1
-1;
#X obj 390 224 noteout;
#X msg 431 199 1;
#X floatatom 395 141 0 0 0 0 - - -;
#X floatatom 355 114 0 0 0 0 - - -;
#X msg 304 125 60;
#X text 381 110 "velocity";
#X text 420 141 duration in milliseconds;
#X obj 299 165 makenote 3.2 500;
#X text 358 22 Midi out;
#X floatatom 288 216 0 0 0 0 - - -;
#X floatatom 335 209 0 0 0 0 - - -;
#X obj 39 79 notein;
#X obj 35 103 stripnote;
#X obj 32 125 select ????;
#X text 38 31 Midi in;
#X obj 26 148 bng 15 100 50 0 empty empty empty 0 -6 0 8 -262144 -1
-1;
#X obj 56 152 s tempoin2;
#X obj 568 -153 bng 15 100 50 0 empty empty empty 17 7 0 10 -262144
-1 -1;
#X floatatom 567 -197 5 0 0 0 - - -, f 5;
#X obj 459 -272 bng 15 200 200 0 empty empty empty 0 -6 0 8 -262144
-1 -1;
#X obj 567 -175 select 1;
#X obj 647 -51 bng 15 100 50 0 empty empty empty 0 -6 0 8 -262144 -1
-1;
#X obj 516 -347 loadbang;
#X obj 467 -295 metro;
#X text 481 -385 Trigger;
#X obj 464 -334 inlet;
#X text 401 -334 On-Off;
#X text 572 -321 Tempo;
#X obj 384 -163 bng 15 100 10 0 empty empty empty 17 7 0 10 -262144
-1 -1;
#X floatatom 383 -207 5 0 0 0 - - -, f 5;
#X obj 383 -185 select 1;
#X obj 118 97 loadbang;
#X obj 118 122 bng 15 100 50 0 empty empty empty 17 7 0 10 -262144
-1 -1;
#X msg 523 -323 250;
#X obj 493 52 loadbang;
#X msg 478 81 80;
#X msg 536 85 10;
#X text 464 198 channel;
#X obj 278 -204 s step1;
#X obj 258 -164 s step2;
#X obj 255 -131 s step3;
#X text 678 22 PC out;
#X obj 561 240 bng 15 100 50 0 empty empty empty 0 -6 0 8 -262144 -1
-1;
#X obj 875 95 bng 15 100 10 0 empty empty empty 0 -6 0 8 -262144 -1
-1;
#X obj 1161 128 select;
#X msg 987 -202 2;
#X obj 1379 -161 stripnote;
#X obj 1386 -184 notein;
#X floatatom 1396 -233 5 0 0 0 - - -, f 5;
#X obj 743 -336 loadbang;
#X obj 694 -284 metro;
#X msg 750 -312 125;
#X obj 1147 -250 r step1;
#X obj 725 -250 bng 15 200 200 0 empty empty empty 0 -6 0 8 -262144
-1 -1;
#X obj 989 -228 r hit1;
#X floatatom 521 -241 5 0 0 0 - - -, f 5;
#X obj 560 -283 float;
#X obj 614 -283 + 1;
#X obj 561 -232 + 1;
#X obj 519 -277 bng 15 250 50 0 empty empty empty 17 7 0 10 -262144
-1 -1;
#X obj 562 -258 mod 2;
#X obj 368 -263 float;
#X obj 422 -263 + 1;
#X obj 327 -257 bng 15 250 50 0 empty empty empty 17 7 0 10 -262144
-1 -1;
#X obj 367 -238 mod 2;
#X floatatom 664 -105 5 0 0 0 - - -, f 5;
#X obj 664 -83 select 1;
#X obj 657 -191 float;
#X obj 711 -191 + 1;
#X obj 658 -140 + 1;
#X obj 659 -166 mod 2;
#X obj 558 -41 bng 15 100 50 0 empty empty empty 0 -6 0 8 -262144 -1
-1;
#X floatatom 559 -74 5 0 0 0 - - -, f 5;
#X obj 559 -61 select 1;
#X obj 561 -132 float;
#X obj 615 -132 + 1;
#X obj 560 -92 + 1;
#X obj 561 -113 mod 2;
#X obj 489 -28 bng 15 100 10 0 empty empty empty 17 7 0 10 -262144
-1 -1;
#X floatatom 486 -75 5 0 0 0 - - -, f 5;
#X obj 486 -53 select 1;
#X obj 471 -131 float;
#X obj 521 -127 + 1;
#X obj 470 -106 mod 2;
#X obj 368 -36 bng 15 100 10 0 empty empty empty 17 7 0 10 -262144
-1 -1;
#X floatatom 369 -86 5 0 0 0 - - -, f 5;
#X obj 367 -66 select 1;
#X obj 370 -130 float;
#X obj 425 -123 + 1;
#X obj 371 -109 mod 2;
#X obj 12 296 bng 15 100 50 0 empty empty empty 0 -6 0 8 -262144 -1
-1;
#X floatatom 13 254 5 0 0 0 - - -, f 5;
#X obj 15 181 float;
#X obj 69 181 + 1;
#X obj 16 232 + 1;
#X obj 17 206 mod 4;
#X obj 13 271 select 2;
#X msg 559 270 1;
#X obj 582 295 oscformat debug;
#X obj 1080 81 bng 15 100 10 0 empty empty empty 0 -6 0 8 -262144 -1
-1;
#X text 1240 -268 Rapide;
#X text 1149 -278 Moyen;
#X msg 1057 -209 3;
#X text 1067 -263 Lent;
#X text 991 -256 Hit;
#X text 922 -259 Step;
#X obj 1270 -98 select 1 9 17 25 33;
#X msg 1260 -11 2;
#X msg 1300 -10 3;
#X obj 1065 -235 r step2;
#X msg 930 -214 1, f 1;
#X msg 1345 -9 4;
#X msg 1139 -224 4;
#X msg 1235 -217 5;
#X msg 1389 -3 5;
#X msg 783 195 disconnect;
#X msg 771 169 connect ottomann.local 50460;
#X msg 856 215 send /control/navigator/run default;
#X obj 855 244 packOSC;
#X obj 857 267 iemnet/udpsend;
#X connect 0 0 5 0;
#X connect 2 0 1 2;
#X connect 3 0 8 2;
#X connect 4 0 8 1;
#X connect 5 0 8 0;
#X connect 8 0 1 0;
#X connect 8 0 10 0;
#X connect 8 1 1 1;
#X connect 8 1 11 0;
#X connect 12 0 13 0;
#X connect 12 1 13 1;
#X connect 13 0 14 0;
#X connect 14 0 16 0;
#X connect 16 0 17 0;
#X connect 16 0 93 0;
#X connect 18 0 68 0;
#X connect 18 0 82 0;
#X connect 19 0 21 0;
#X connect 20 0 39 0;
#X connect 20 0 0 0;
#X connect 20 0 60 0;
#X connect 20 0 64 0;
#X connect 21 0 18 0;
#X connect 22 0 44 0;
#X connect 23 0 34 0;
#X connect 24 0 20 0;
#X connect 26 0 24 0;
#X connect 26 0 51 0;
#X connect 29 0 40 0;
#X connect 29 0 75 0;
#X connect 29 0 88 0;
#X connect 30 0 31 0;
#X connect 31 0 29 0;
#X connect 32 0 33 0;
#X connect 34 0 24 1;
#X connect 35 0 36 0;
#X connect 35 0 37 0;
#X connect 35 0 2 0;
#X connect 35 0 117 0;
#X connect 36 0 4 0;
#X connect 37 0 3 0;
#X connect 43 0 98 0;
#X connect 44 0 118 0;
#X connect 45 0 100 0;
#X connect 46 0 45 0;
#X connect 47 0 49 0;
#X connect 47 0 107 0;
#X connect 48 0 47 0;
#X connect 48 1 47 1;
#X connect 50 0 52 0;
#X connect 51 0 54 0;
#X connect 52 0 51 1;
#X connect 53 0 113 0;
#X connect 54 0 114 0;
#X connect 55 0 46 0;
#X connect 56 0 19 0;
#X connect 57 0 58 0;
#X connect 57 0 61 0;
#X connect 58 0 57 1;
#X connect 59 0 56 0;
#X connect 60 0 57 0;
#X connect 61 0 59 0;
#X connect 62 0 63 0;
#X connect 62 0 65 0;
#X connect 63 0 62 1;
#X connect 64 0 62 0;
#X connect 65 0 30 0;
#X connect 66 0 67 0;
#X connect 67 0 22 0;
#X connect 68 0 69 0;
#X connect 68 0 71 0;
#X connect 69 0 68 1;
#X connect 70 0 66 0;
#X connect 71 0 70 0;
#X connect 72 0 44 0;
#X connect 73 0 74 0;
#X connect 74 0 72 0;
#X connect 75 0 76 0;
#X connect 75 0 78 0;
#X connect 76 0 75 1;
#X connect 77 0 73 0;
#X connect 78 0 77 0;
#X connect 79 0 41 0;
#X connect 79 0 44 0;
#X connect 80 0 81 0;
#X connect 81 0 79 0;
#X connect 82 0 83 0;
#X connect 82 0 84 0;
#X connect 83 0 82 1;
#X connect 84 0 80 0;
#X connect 85 0 44 0;
#X connect 86 0 87 0;
#X connect 87 0 85 0;
#X connect 88 0 89 0;
#X connect 88 0 90 0;
#X connect 89 0 88 1;
#X connect 90 0 86 0;
#X connect 92 0 97 0;
#X connect 93 0 94 0;
#X connect 93 0 96 0;
#X connect 94 0 93 1;
#X connect 95 0 92 0;
#X connect 96 0 95 0;
#X connect 97 0 91 0;
#X connect 98 0 99 0;
#X connect 103 0 45 0;
#X connect 107 0 111 0;
#X connect 107 1 108 0;
#X connect 107 2 109 0;
#X connect 107 3 112 0;
#X connect 107 4 115 0;
#X connect 108 0 45 1;
#X connect 109 0 45 1;
#X connect 110 0 103 0;
#X connect 111 0 45 1;
#X connect 111 0 45 0;
#X connect 112 0 45 1;
#X connect 113 0 45 0;
#X connect 114 0 45 0;
#X connect 115 0 45 1;
#X connect 116 0 120 0;
#X connect 117 0 120 0;
#X connect 118 0 119 0;
#X connect 119 0 120 0;
#X restore 744 78 pd turingsync;
#X obj 744 112 r step1;
#X obj 641 89 r step3;
#X obj 870 272 s hit1;
#X obj 1034 912 r test;
#X obj 533 90 float;
#X obj 587 90 + 1;
#X obj 534 115 mod 8;
#X obj 534 141 + 1;
#X obj 492 96 bng 15 250 50 0 empty empty empty 17 7 0 10 -262144 -1
-1;
#X obj 920 703 *~ 0.5;
#X obj 920 668 rev2~ 100 90 3000 20;
#X obj 1599 177 select 0 8 16 24 32;
#X connect 0 0 255 0;
#X connect 1 0 244 0;
#X connect 2 0 247 0;
#X connect 3 0 246 0;
#X connect 4 0 245 0;
#X connect 5 0 251 0;
#X connect 6 0 171 0;
#X connect 7 0 15 0;
#X connect 8 0 10 0;
#X connect 9 0 17 0;
#X connect 10 0 81 0;
#X connect 11 0 16 0;
#X connect 11 0 211 1;
#X connect 12 0 57 0;
#X connect 13 0 14 0;
#X connect 14 0 81 0;
#X connect 15 0 81 0;
#X connect 16 0 19 0;
#X connect 17 0 81 0;
#X connect 18 0 40 0;
#X connect 19 0 75 0;
#X connect 20 0 42 0;
#X connect 21 0 164 0;
#X connect 22 0 75 0;
#X connect 23 0 24 0;
#X connect 24 0 75 0;
#X connect 25 0 38 0;
#X connect 26 0 162 0;
#X connect 27 0 23 0;
#X connect 28 0 184 0;
#X connect 28 0 229 0;
#X connect 29 0 83 0;
#X connect 30 0 155 0;
#X connect 32 0 228 0;
#X connect 33 0 89 0;
#X connect 34 0 11 0;
#X connect 34 0 135 0;
#X connect 35 0 34 0;
#X connect 36 0 163 0;
#X connect 38 0 39 0;
#X connect 39 0 24 1;
#X connect 40 0 41 0;
#X connect 41 0 19 1;
#X connect 42 0 43 0;
#X connect 43 0 22 1;
#X connect 44 0 45 0;
#X connect 45 0 127 1;
#X connect 46 0 47 0;
#X connect 47 0 29 1;
#X connect 48 0 161 0;
#X connect 53 0 172 0;
#X connect 56 0 231 1;
#X connect 57 0 7 0;
#X connect 57 1 13 0;
#X connect 57 2 8 0;
#X connect 57 3 9 0;
#X connect 57 4 58 0;
#X connect 58 0 59 0;
#X connect 59 0 81 0;
#X connect 60 0 63 0;
#X connect 61 0 63 0;
#X connect 62 0 66 0;
#X connect 62 1 67 0;
#X connect 62 2 65 0;
#X connect 62 3 67 0;
#X connect 62 4 64 0;
#X connect 62 5 67 0;
#X connect 62 6 65 0;
#X connect 62 7 67 0;
#X connect 63 0 56 1;
#X connect 64 0 68 0;
#X connect 65 0 61 0;
#X connect 66 0 60 0;
#X connect 67 0 69 0;
#X connect 68 0 63 0;
#X connect 69 0 63 0;
#X connect 70 0 62 0;
#X connect 71 0 28 0;
#X connect 72 0 71 0;
#X connect 73 0 248 0;
#X connect 73 1 242 0;
#X connect 73 2 241 0;
#X connect 73 3 240 0;
#X connect 73 4 239 0;
#X connect 75 0 144 0;
#X connect 76 0 215 0;
#X connect 77 0 35 1;
#X connect 78 0 104 1;
#X connect 80 0 75 1;
#X connect 81 0 35 0;
#X connect 81 0 234 1;
#X connect 82 0 83 1;
#X connect 83 0 93 0;
#X connect 84 0 189 0;
#X connect 85 0 86 0;
#X connect 87 0 85 0;
#X connect 88 0 198 0;
#X connect 90 0 91 0;
#X connect 92 0 188 0;
#X connect 93 0 138 0;
#X connect 93 0 236 0;
#X connect 93 0 174 1;
#X connect 93 0 266 0;
#X connect 94 0 90 0;
#X connect 95 0 103 0;
#X connect 96 0 87 0;
#X connect 96 0 94 0;
#X connect 97 0 79 0;
#X connect 98 0 102 0;
#X connect 101 0 104 0;
#X connect 104 0 97 0;
#X connect 108 0 109 0;
#X connect 109 0 78 0;
#X connect 111 0 235 0;
#X connect 113 0 228 1;
#X connect 120 0 131 1;
#X connect 121 0 113 2;
#X connect 122 0 113 3;
#X connect 123 0 113 4;
#X connect 124 0 113 5;
#X connect 125 0 126 0;
#X connect 126 0 113 1;
#X connect 127 0 32 0;
#X connect 130 0 113 0;
#X connect 131 0 129 0;
#X connect 135 0 111 0;
#X connect 137 0 139 0;
#X connect 138 0 140 0;
#X connect 139 0 141 0;
#X connect 140 0 150 0;
#X connect 142 0 136 0;
#X connect 143 0 148 0;
#X connect 144 0 174 0;
#X connect 144 0 137 0;
#X connect 144 0 226 0;
#X connect 145 0 146 0;
#X connect 146 0 147 0;
#X connect 147 0 144 1;
#X connect 149 0 193 0;
#X connect 152 0 151 0;
#X connect 156 0 194 0;
#X connect 159 0 18 0;
#X connect 160 0 214 0;
#X connect 169 0 131 0;
#X connect 169 0 237 0;
#X connect 170 0 128 0;
#X connect 173 0 73 0;
#X connect 174 0 49 0;
#X connect 174 0 49 1;
#X connect 175 0 176 0;
#X connect 176 0 183 0;
#X connect 178 0 179 0;
#X connect 179 0 177 0;
#X connect 184 0 127 0;
#X connect 185 0 93 1;
#X connect 186 0 82 0;
#X connect 187 0 185 0;
#X connect 188 0 187 0;
#X connect 189 0 186 0;
#X connect 190 0 143 0;
#X connect 191 0 46 0;
#X connect 192 0 30 0;
#X connect 193 0 145 0;
#X connect 194 0 191 0;
#X connect 195 0 33 0;
#X connect 196 0 85 0;
#X connect 197 0 98 0;
#X connect 198 0 44 0;
#X connect 199 0 254 0;
#X connect 200 0 201 0;
#X connect 200 1 201 1;
#X connect 201 0 199 0;
#X connect 202 0 203 0;
#X connect 203 0 198 0;
#X connect 206 0 95 0;
#X connect 207 0 78 0;
#X connect 208 0 21 0;
#X connect 209 0 48 0;
#X connect 210 0 26 0;
#X connect 211 0 27 0;
#X connect 212 0 211 0;
#X connect 213 0 20 0;
#X connect 214 0 25 0;
#X connect 215 0 212 0;
#X connect 216 0 217 0;
#X connect 217 0 113 5;
#X connect 217 0 124 0;
#X connect 218 0 243 0;
#X connect 219 0 220 0;
#X connect 219 1 220 1;
#X connect 220 0 267 0;
#X connect 221 0 53 0;
#X connect 222 0 53 0;
#X connect 223 0 53 0;
#X connect 224 0 53 0;
#X connect 225 0 53 0;
#X connect 226 0 183 0;
#X connect 227 0 230 0;
#X connect 228 0 29 0;
#X connect 229 0 227 0;
#X connect 230 0 127 0;
#X connect 231 0 12 0;
#X connect 232 0 5 0;
#X connect 232 0 238 0;
#X connect 233 0 234 0;
#X connect 233 0 258 0;
#X connect 234 0 72 0;
#X connect 235 0 22 0;
#X connect 236 0 177 0;
#X connect 238 0 1 0;
#X connect 238 1 4 0;
#X connect 238 2 3 0;
#X connect 238 3 2 0;
#X connect 239 0 232 1;
#X connect 240 0 232 1;
#X connect 241 0 232 1;
#X connect 242 0 232 1;
#X connect 243 0 113 3;
#X connect 243 0 122 0;
#X connect 244 0 233 0;
#X connect 245 0 233 0;
#X connect 246 0 233 0;
#X connect 247 0 233 0;
#X connect 248 0 232 1;
#X connect 249 0 250 0;
#X connect 250 0 6 0;
#X connect 251 0 169 0;
#X connect 252 0 213 0;
#X connect 253 0 80 0;
#X connect 256 0 232 0;
#X connect 257 0 231 0;
#X connect 257 0 56 0;
#X connect 257 0 264 0;
#X connect 260 0 262 0;
#X connect 260 0 261 0;
#X connect 261 0 260 1;
#X connect 262 0 263 0;
#X connect 263 0 70 0;
#X connect 264 0 260 0;
#X connect 265 0 174 1;
#X connect 266 0 265 0;
#X connect 267 0 223 0;
#X connect 267 1 222 0;
#X connect 267 2 224 0;
#X connect 267 3 221 0;
#X connect 267 4 225 0;
#X coords 0 891 1 890 85 60 0;
