#N canvas 4 159 1254 931 12;
#X obj 157 349 sig~;
#X floatatom 157 320 5 0 0 0 - - -, f 5;
#X obj 99 279 mtof;
#X obj 188 84 vsl 15 128 50 3000 0 0 empty empty empty 0 -9 0 10 -262144
-1 -1 1223 1;
#N canvas 2 95 450 300 lfo 0;
#X obj 129 57 loadbang;
#X msg 173 87 90;
#X obj 150 136 f 1;
#X obj 179 138 +;
#X obj 148 156 cos;
#X obj 151 115 metro 2;
#X obj 177 160 *;
#X obj 150 177 +;
#X obj 156 243 outlet;
#X obj 77 72 bng 15 250 50 0 empty empty empty 17 7 0 10 -262144 -1
-1;
#X obj 236 97 * 0.25;
#X obj 1 71 * 0.001;
#X obj 0 35 inlet;
#X msg 47 33 freq;
#X obj 234 68 inlet;
#X msg 300 106 amount;
#X connect 0 0 1 0;
#X connect 0 0 5 0;
#X connect 2 0 3 0;
#X connect 2 0 4 0;
#X connect 3 0 2 1;
#X connect 4 0 6 0;
#X connect 5 0 2 0;
#X connect 5 0 7 0;
#X connect 6 0 7 1;
#X connect 7 0 8 0;
#X connect 9 0 5 0;
#X connect 10 0 6 1;
#X connect 11 0 3 1;
#X connect 12 0 11 0;
#X connect 14 0 10 0;
#X restore 79 200 pd lfo;
#X obj 569 332 sig~;
#X floatatom 569 303 5 0 0 0 - - -, f 5;
#X obj 576 96 vsl 15 128 50 3000 0 0 empty empty empty 0 -9 0 10 -262144
-1 -1 222 1;
#X obj 244 52 bng 15 250 50 0 empty empty empty 17 7 0 10 -262144 -1
-1;
#X obj 461 378 mtof;
#N canvas 2 95 450 300 lfo 0;
#X obj 129 57 loadbang;
#X msg 173 87 90;
#X obj 150 136 f 1;
#X obj 179 138 +;
#X obj 148 156 cos;
#X obj 151 115 metro 2;
#X obj 177 160 *;
#X obj 150 177 +;
#X obj 156 243 outlet;
#X obj 77 72 bng 15 250 50 0 empty empty empty 17 7 0 10 -262144 -1
-1;
#X obj 236 97 * 0.25;
#X obj 1 71 * 0.001;
#X obj 0 35 inlet;
#X msg 47 33 freq;
#X obj 234 68 inlet;
#X msg 300 106 amount;
#X connect 0 0 1 0;
#X connect 0 0 5 0;
#X connect 2 0 3 0;
#X connect 2 0 4 0;
#X connect 3 0 2 1;
#X connect 4 0 6 0;
#X connect 5 0 2 0;
#X connect 5 0 7 0;
#X connect 6 0 7 1;
#X connect 7 0 8 0;
#X connect 9 0 5 0;
#X connect 10 0 6 1;
#X connect 11 0 3 1;
#X connect 12 0 11 0;
#X connect 14 0 10 0;
#X restore 441 299 pd lfo;
#X obj 444 328 + 67;
#X msg 97 154 4;
#X msg 440 275 3;
#X obj 372 359 sig~;
#X floatatom 372 330 5 0 0 0 - - -, f 5;
#X obj 389 92 vsl 15 128 50 3000 0 0 empty empty empty 0 -9 0 10 -262144
-1 -1 4650 1;
#X obj 258 407 mtof;
#N canvas 2 95 450 300 lfo 0;
#X obj 129 57 loadbang;
#X msg 173 87 90;
#X obj 150 136 f 1;
#X obj 179 138 +;
#X obj 148 156 cos;
#X obj 151 115 metro 2;
#X obj 177 160 *;
#X obj 150 177 +;
#X obj 156 243 outlet;
#X obj 77 72 bng 15 250 50 0 empty empty empty 17 7 0 10 -262144 -1
-1;
#X obj 236 97 * 0.25;
#X obj 1 71 * 0.001;
#X obj 0 35 inlet;
#X msg 47 33 freq;
#X obj 234 68 inlet;
#X msg 300 106 amount;
#X connect 0 0 1 0;
#X connect 0 0 5 0;
#X connect 2 0 3 0;
#X connect 2 0 4 0;
#X connect 3 0 2 1;
#X connect 4 0 6 0;
#X connect 5 0 2 0;
#X connect 5 0 7 0;
#X connect 6 0 7 1;
#X connect 7 0 8 0;
#X connect 9 0 5 0;
#X connect 10 0 6 1;
#X connect 11 0 3 1;
#X connect 12 0 11 0;
#X connect 14 0 10 0;
#X restore 244 351 pd lfo;
#X obj 250 383 + 67;
#X msg 243 326 6;
#X obj 736 291 sig~;
#X floatatom 736 262 5 0 0 0 - - -, f 5;
#X obj 733 99 vsl 15 128 50 3000 0 0 empty empty empty 0 -9 0 10 -262144
-1 -1 998 1;
#X obj 642 356 mtof;
#X obj 636 329 + 67;
#X obj 1120 127 mtof;
#X obj 660 106 / 2;
#X obj 773 74 / 3;
#X obj 790 98 * 4;
#X obj 197 492 *~;
#X msg 621 263 2;
#X msg 1326 25 55;
#X msg 1273 9 53;
#X obj 556 362 vcf~ 0.8;
#X obj 723 321 vcf~ 0.6;
#N canvas 2 113 450 300 lfo 0;
#X obj 129 57 loadbang;
#X msg 173 87 90;
#X obj 150 136 f 1;
#X obj 179 138 +;
#X obj 148 156 cos;
#X obj 151 115 metro 2;
#X obj 177 160 *;
#X obj 150 177 +;
#X obj 156 243 outlet;
#X obj 236 97 * 0.25;
#X obj 1 71 * 0.001;
#X obj 0 35 inlet;
#X msg 47 33 freq;
#X obj 234 68 inlet;
#X msg 300 106 amount;
#X connect 0 0 1 0;
#X connect 0 0 5 0;
#X connect 2 0 3 0;
#X connect 2 0 4 0;
#X connect 3 0 2 1;
#X connect 4 0 6 0;
#X connect 5 0 2 0;
#X connect 5 0 7 0;
#X connect 6 0 7 1;
#X connect 7 0 8 0;
#X connect 9 0 6 1;
#X connect 10 0 3 1;
#X connect 11 0 10 0;
#X connect 13 0 9 0;
#X restore 630 297 pd lfo;
#X obj 672 235 loadbang;
#X msg 671 267 95;
#X obj 144 379 vcf~ 0.9;
#X obj 85 232 + 67;
#X obj 480 223 loadbang;
#X msg 479 255 95;
#X obj 102 87 loadbang;
#X msg 101 119 102;
#X obj 272 259 loadbang;
#X msg 271 291 90;
#X obj 1377 659 line;
#X obj 944 253 line;
#X obj 49 500 dbtorms;
#X msg 49 522 \$1 75;
#X obj 48 551 line~;
#X obj 78 834 vsl 15 128 0 90 0 0 empty empty empty 0 -9 0 10 -262144
-1 -1 0 1;
#X obj 981 195 bng 15 250 50 0 empty empty empty 17 7 0 10 -262144
-1 -1;
#X obj 1373 611 bng 15 250 50 0 empty empty empty 17 7 0 10 -262144
-1 -1;
#X text 361 303 comment;
#X text 146 293 comment;
#X obj 658 316 phasor~;
#X obj 497 318 phasor~;
#X obj 279 319 phasor~;
#X obj 301 346 osc~;
#X obj 91 312 phasor~;
#X obj 119 338 osc~;
#X obj 720 346 *~ 0.9;
#X obj 999 215 delay 2000;
#X floatatom 1510 125 5 0 0 0 - - -, f 5;
#X floatatom 1505 158 5 0 0 0 - - -, f 5;
#X floatatom 1505 198 5 0 0 0 - - -, f 5;
#X msg 946 221 85 10;
#X obj 1450 151 f;
#X msg 1250 53 56;
#X msg 1256 85 60;
#X obj 891 600 delay 600;
#X obj 891 560 delay 600;
#X msg 1331 57 58;
#X msg 1328 90 60;
#X msg 1420 22 63;
#X msg 1422 49 65;
#X msg 1591 22 55;
#X msg 1552 28 60;
#X msg 1464 23 58;
#X obj 1339 -16 select 0 1 2 3 4 5 6 7 8;
#X msg 1375 22 58;
#X msg 1430 91 60;
#X msg 1646 17 50;
#X msg 1382 59 63;
#X msg 1386 94 60;
#X obj 719 594 tgl 15 0 empty empty empty 17 7 0 10 -262144 -1 -1 0
1;
#X obj 216 27 loadbang;
#X floatatom 1234 -18 5 0 0 0 - - -, f 5;
#X obj 1336 -41 random 9;
#X msg 989 249 0 10000;
#X floatatom 1199 635 5 0 200 0 - - -, f 5;
#X obj 1274 700 bob~;
#X obj 1199 657 / 25;
#X floatatom 1276 582 5 0 150 0 - - -, f 5;
#X obj 1276 604 mtof;
#X obj 1277 649 pack 0 50;
#X obj 1277 674 line~;
#X floatatom 1276 627 7 0 0 0 - - -, f 7;
#X obj 1198 685 line~;
#X obj 347 629 vsl 15 128 0 80 0 0 empty empty empty 0 -9 0 10 -262144
-1 -1 0 1;
#X obj 1297 931 dac~;
#X obj 1397 608 delay 500;
#X obj 830 530 *~;
#X obj 287 462 dbtorms;
#X obj 289 509 line~;
#X obj 43 636 vsl 15 128 0 95 0 0 empty empty empty 0 -9 0 10 -262144
-1 -1 0 1;
#X obj 1370 715 dbtorms;
#X obj 1367 769 line~;
#X obj 146 831 vsl 15 128 0 99 0 0 empty empty empty 0 -9 0 10 -262144
-1 -1 0 1;
#X obj 1285 760 *~;
#X obj 272 635 vsl 15 128 0 100 0 0 empty empty empty 0 -9 0 10 -262144
-1 -1 0 1;
#X obj 1151 540 / 2;
#X obj 1152 572 phasor~;
#X obj 1209 541 / 2;
#X obj 1151 782 dbtorms;
#X msg 1151 804 \$1 75;
#X obj 1150 833 line~;
#X obj 107 633 vsl 15 128 0 99 0 0 empty empty empty 0 -9 0 10 -262144
-1 -1 0 1;
#X obj 1274 736 *~;
#X obj 1221 572 osc~;
#X msg 1370 737 \$1 75;
#X obj 354 452 ctlin 9;
#X obj 345 504 / 127;
#X obj 421 490 / 127;
#X obj 422 473 * 95;
#X obj 421 447 ctlin 8;
#X obj 494 446 ctlin 3;
#X obj 557 455 ctlin 2;
#X obj 558 481 * 80;
#X obj 439 51 stripnote;
#X obj 439 76 select 69;
#X obj 440 28 notein;
#X text 757 565 Play;
#X text -2 785 Vol High;
#X text 81 786 Vol Bass, f 10;
#X text 220 792 BPF Freq, f 10;
#X text 311 793 BPF Reso, f 10;
#X msg 1396 630 70 2000;
#X obj 556 497 / 90;
#X obj 865 518 bng 15 250 50 0 empty empty empty 17 7 0 10 -262144
-1 -1;
#X msg 1366 579 95 5;
#X msg 1510 22 63;
#X msg 1503 62 65;
#X obj 890 629 delay 1800;
#X obj 1865 336 expr~ $v1 > 0.5;
#X obj 1865 310 phasor~;
#X obj 1863 403 expr~ $v1 > 0.5;
#X obj 1863 379 phasor~;
#X obj 349 394 vcf~ 0.7;
#X obj 1864 486 expr~ $v1 > 0.5;
#X obj 1864 461 phasor~;
#X obj 904 806 r volbass;
#X obj 1370 686 s volbass;
#X obj 1618 119 mtof;
#X obj 1612 156 mtof;
#X obj 1613 197 mtof;
#X obj 1434 187 f;
#X obj 1572 123 f;
#X obj 1573 198 f;
#X obj 1571 158 f;
#X msg 983 481 4800;
#X obj 1005 550 / 8;
#X obj 1004 603 * 3;
#X text 1036 484 Tempo ms;
#X obj 864 559 bng 15 250 50 0 empty empty empty 17 7 0 10 -262144
-1 -1;
#X obj 864 597 bng 15 250 50 0 empty empty empty 17 7 0 10 -262144
-1 -1;
#X obj 860 633 bng 15 250 50 0 empty empty empty 17 7 0 10 -262144
-1 -1;
#X msg 287 484 \$1 50;
#X obj 1477 651 dbtorms;
#X obj 1476 702 line~;
#X msg 1477 673 \$1 75;
#X obj 1488 502 vsl 15 128 0 99 0 0 empty empty empty 0 -9 0 10 -262144
-1 -1 0 1;
#X obj 1606 89 bng 15 250 50 0 empty empty empty 17 7 0 10 -262144
-1 -1;
#X obj 1484 432 line, f 5;
#X obj 1865 437 / 1;
#X obj 1503 273 bng 15 250 50 0 empty empty empty 17 7 0 10 -262144
-1 -1;
#X obj 891 660 delay 600;
#X msg 1504 316 60 450;
#X obj 1512 342 delay 600;
#X obj 1505 294 delay 300;
#X msg 1709 339 60 450;
#X obj 1715 365 delay 600;
#X msg 1714 387 0 2400;
#X obj 889 691 delay 900;
#X obj 1710 317 delay 600;
#X obj 859 661 bng 15 250 50 0 empty empty empty 17 7 0 10 -262144
-1 -1;
#X obj 859 691 bng 15 250 50 0 empty empty empty 17 7 0 10 -262144
-1 -1;
#X obj 1710 298 bng 15 250 50 0 empty empty empty 17 7 0 10 -262144
-1 -1;
#X obj 1610 279 bng 15 250 50 0 empty empty empty 17 7 0 10 -262144
-1 -1;
#X msg 1611 322 60 450;
#X obj 1619 348 delay 600;
#X msg 1618 370 0 1200;
#X obj 1612 300 delay 300;
#X obj 1889 658 / 127;
#X msg 1491 248 \$1 5;
#X obj 1889 615 ctlin 4;
#X obj 1966 621 ctlin 6;
#X obj 2044 619 ctlin 7;
#X msg 1598 254 \$1 5;
#X msg 1706 275 \$1 5;
#X obj 716 697 hsl 128 15 40 80 0 0 empty empty empty -2 -8 0 10 -262144
-1 -1 0 1;
#X obj 717 724 hsl 128 15 40 80 0 0 empty empty empty -2 -8 0 10 -262144
-1 -1 0 1;
#X obj 732 749 hsl 128 15 40 80 0 0 empty empty empty -2 -8 0 10 -262144
-1 -1 0 1;
#X text 626 694 Chord 1, f 10;
#X text 626 722 Chord 2, f 10;
#X text 625 753 Chord 3, f 10;
#X obj 1516 816 *~;
#X obj 1551 784 +~;
#X obj 1640 925 *~;
#X obj 1646 952 *~;
#X obj 1767 779 dbtorms;
#X obj 1766 830 line~;
#X msg 1767 801 \$1 75;
#X obj 583 642 vsl 15 128 0 90 0 0 empty empty empty 0 -9 0 10 -262144
-1 -1 0 1;
#X obj 1437 786 dbtorms;
#X obj 1439 831 line~;
#X msg 1437 808 \$1 75;
#X obj 500 637 vsl 15 128 0 100 0 0 empty empty empty 0 -9 0 10 -262144
-1 -1 0 1;
#X text 487 794 Vol Clean;
#X text 406 600 ---------------Chords-------------;
#X obj 441 102 s play;
#X obj 714 542 r play;
#X obj 812 805 r volhigh;
#X obj 941 282 s volhigh;
#X obj 702 484 / 127;
#X obj 765 488 / 127;
#X obj 702 441 ctlin 0;
#X obj 766 445 ctlin 5;
#X text 571 794 Vol Ringmod;
#N canvas 24 119 450 300 ringmodulator 0;
#X obj 99 216 osc~;
#X obj 218 217 osc~;
#X obj 156 118 vsl 12 35 0 5000 0 0 empty empty left -1 -9 1 10 -262144
-1 -1 0 1;
#X obj 182 118 vsl 12 35 0 5000 0 0 empty empty right -5 -9 1 10 -262144
-1 -1 0 1;
#X obj 274 262 samphold~;
#X obj 60 50 inlet~;
#X obj 267 118 vsl 12 35 0 10000 0 0 empty empty samp_rate -15 -9 1
10 -262144 -1 -1 0 1;
#X obj 157 159 tgl 10 0 empty empty empty 17 7 0 10 -262144 -1 -1 1
1;
#X obj 183 159 tgl 10 0 empty empty empty 17 7 0 10 -262144 -1 -1 1
1;
#X obj 268 159 tgl 10 0 empty empty empty 17 7 0 10 -262144 -1 -1 0
1;
#X text 100 141 ring mod;
#X obj 86 412 outlet~;
#X obj 203 414 outlet~;
#X obj 84 262 *~;
#X obj 84 298 *~ 0;
#X obj 203 263 *~;
#X obj 46 80 s~ \$0-in;
#X obj 34 216 r~ \$0-in;
#X obj 154 217 r~ \$0-in;
#X obj 203 298 *~ 0;
#X text 101 154 on/off;
#X obj 119 50 inlet;
#X obj 184 50 inlet;
#X obj 255 50 inlet;
#X obj 110 80 s \$0-left;
#X obj 184 79 s \$0-right;
#X obj 255 79 s \$0-rate;
#X obj 343 218 r \$0-rate;
#X obj 218 173 r \$0-right;
#X obj 99 173 r \$0-left;
#X text 210 142 sample;
#X text 210 153 and hold;
#X obj 206 101 cnv 1 1 68 empty empty empty 20 12 0 14 -228856 -66577
0;
#X obj 274 218 r~ \$0-in;
#X obj 274 298 *~ 0;
#X obj 343 241 phasor~ 5000;
#X obj 43 100 loadbang;
#X msg 43 126 1;
#X connect 0 0 13 1;
#X connect 1 0 15 1;
#X connect 2 0 0 0;
#X connect 3 0 1 0;
#X connect 4 0 34 0;
#X connect 5 0 16 0;
#X connect 6 0 35 0;
#X connect 7 0 14 1;
#X connect 8 0 19 1;
#X connect 9 0 34 1;
#X connect 13 0 14 0;
#X connect 14 0 11 0;
#X connect 15 0 19 0;
#X connect 17 0 13 0;
#X connect 18 0 15 0;
#X connect 19 0 12 0;
#X connect 21 0 24 0;
#X connect 22 0 25 0;
#X connect 23 0 26 0;
#X connect 27 0 35 0;
#X connect 28 0 1 0;
#X connect 29 0 0 0;
#X connect 33 0 4 0;
#X connect 34 0 12 0;
#X connect 34 0 11 0;
#X connect 35 0 4 1;
#X connect 36 0 37 0;
#X connect 37 0 7 0;
#X connect 37 0 8 0;
#X restore 1758 884 pd ringmodulator;
#X obj 1431 887 *~;
#X obj 1562 434 line, f 5;
#X obj 1659 427 line, f 5;
#X obj 1554 818 *~;
#X obj 1550 657 dbtorms;
#X obj 1549 708 line~;
#X msg 1550 679 \$1 75;
#X obj 1561 508 vsl 15 128 0 99 0 0 empty empty empty 0 -9 0 10 -262144
-1 -1 0 1;
#X obj 1640 653 dbtorms;
#X obj 1639 704 line~;
#X msg 1640 675 \$1 75;
#X obj 1651 504 vsl 15 128 0 99 0 0 empty empty empty 0 -9 0 10 -262144
-1 -1 0 1;
#X obj 1596 819 *~;
#X obj 1545 855 +~;
#X msg 1511 364 0 1800;
#X obj 435 638 vsl 15 128 0 99 0 0 empty empty empty 0 -9 0 10 -262144
-1 -1 0 1;
#X text 400 793 Rev lenght;
#X obj 627 486 / 127;
#X obj 627 443 ctlin 1;
#X obj 628 469 * 100;
#X obj 1488 222 f;
#X obj 1597 226 f;
#X obj 1696 232 f;
#X obj 1715 168 bng 15 250 50 0 empty empty empty 17 7 0 10 -262144
-1 -1;
#X obj 703 467 * 99;
#X obj 766 471 * 99;
#X obj 1890 685 + 40;
#X obj 1889 637 * 40;
#X obj 1964 690 + 40;
#X obj 2045 695 + 40;
#X obj 1966 643 * 40;
#X obj 1965 666 / 127;
#X obj 2043 647 * 40;
#X obj 2042 671 / 127;
#X obj 484 475 / 127;
#X obj 480 502 * 100;
#X obj 444 525 + 10;
#X obj 352 478 * 95;
#X text 80 610 comment, f 10;
#N canvas 4 93 827 922 turingsync 1;
#X obj 364 76 bng 15 100 50 0 empty empty empty 0 -6 0 8 -262144 -1
-1;
#X obj 390 224 noteout;
#X msg 431 199 1;
#X floatatom 395 141 0 0 0 0 - - -;
#X floatatom 355 114 0 0 0 0 - - -;
#X msg 304 125 60;
#X text 381 110 "velocity";
#X text 420 141 duration in milliseconds;
#X obj 299 165 makenote 3.2 500;
#X text 358 22 Midi out;
#X floatatom 288 216 0 0 0 0 - - -;
#X floatatom 335 209 0 0 0 0 - - -;
#X obj 568 -153 bng 15 100 50 0 empty empty empty 17 7 0 10 -262144
-1 -1;
#X floatatom 567 -197 5 0 0 0 - - -, f 5;
#X obj 459 -272 bng 15 200 200 0 empty empty empty 0 -6 0 8 -262144
-1 -1;
#X obj 567 -175 select 1;
#X obj 647 -51 bng 15 100 50 0 empty empty empty 0 -6 0 8 -262144 -1
-1;
#X obj 516 -347 loadbang;
#X obj 467 -295 metro;
#X text 481 -385 Trigger;
#X obj 464 -334 inlet;
#X text 401 -334 On-Off;
#X text 572 -321 Tempo;
#X obj 384 -163 bng 15 100 10 0 empty empty empty 17 7 0 10 -262144
-1 -1;
#X floatatom 383 -207 5 0 0 0 - - -, f 5;
#X obj 383 -185 select 1;
#X obj 493 52 loadbang;
#X msg 478 81 80;
#X msg 536 85 10;
#X text 464 198 channel;
#X obj 278 -204 s step1;
#X obj 258 -164 s step2;
#X obj 255 -131 s step3;
#X msg 624 158 disconnect;
#X text 678 22 PC out;
#X obj 875 95 bng 15 100 10 0 empty empty empty 0 -6 0 8 -262144 -1
-1;
#X obj 1161 128 select;
#X msg 987 -202 2;
#X obj 1379 -161 stripnote;
#X obj 1386 -184 notein;
#X floatatom 1376 -130 5 0 0 0 - - -, f 5;
#X floatatom 521 -241 5 0 0 0 - - -, f 5;
#X obj 560 -283 float;
#X obj 614 -283 + 1;
#X obj 561 -232 + 1;
#X obj 519 -277 bng 15 250 50 0 empty empty empty 17 7 0 10 -262144
-1 -1;
#X obj 562 -258 mod 2;
#X obj 368 -263 float;
#X obj 422 -263 + 1;
#X obj 327 -257 bng 15 250 50 0 empty empty empty 17 7 0 10 -262144
-1 -1;
#X obj 367 -238 mod 2;
#X floatatom 664 -105 5 0 0 0 - - -, f 5;
#X obj 664 -83 select 1;
#X obj 657 -191 float;
#X obj 711 -191 + 1;
#X obj 658 -140 + 1;
#X obj 659 -166 mod 2;
#X obj 558 -41 bng 15 100 50 0 empty empty empty 0 -6 0 8 -262144 -1
-1;
#X floatatom 559 -74 5 0 0 0 - - -, f 5;
#X obj 559 -61 select 1;
#X obj 561 -132 float;
#X obj 615 -132 + 1;
#X obj 560 -92 + 1;
#X obj 561 -113 mod 2;
#X obj 489 -28 bng 15 100 10 0 empty empty empty 17 7 0 10 -262144
-1 -1;
#X floatatom 486 -75 5 0 0 0 - - -, f 5;
#X obj 486 -53 select 1;
#X obj 471 -131 float;
#X obj 521 -127 + 1;
#X obj 470 -106 mod 2;
#X obj 368 -36 bng 15 100 10 0 empty empty empty 17 7 0 10 -262144
-1 -1;
#X floatatom 369 -86 5 0 0 0 - - -, f 5;
#X obj 367 -66 select 1;
#X obj 370 -130 float;
#X obj 425 -123 + 1;
#X obj 371 -109 mod 2;
#X text 1240 -268 Rapide;
#X text 1149 -278 Moyen;
#X msg 1057 -209 3;
#X text 1067 -263 Lent;
#X text 991 -256 Hit;
#X text 922 -259 Step;
#X obj 1270 -98 select 1 9 17 25 33;
#X msg 1260 -11 2;
#X msg 1300 -10 3;
#X msg 930 -214 1, f 1;
#X msg 1345 -9 4;
#X msg 1139 -224 4;
#X msg 1235 -217 5;
#X msg 1389 -3 5;
#X msg 524 -324 300;
#X obj 989 -228 r hit;
#X obj 1230 -244 r step1;
#X obj 1147 -250 r step2;
#X obj 1065 -235 r step3;
#X floatatom 785 -113 5 0 0 0 - - -, f 5;
#X obj 785 -91 select 1;
#X obj 778 -199 float;
#X obj 832 -199 + 1;
#X obj 779 -148 + 1;
#X obj 786 -61 s step4;
#X obj 719 -327 s tempo;
#X obj 782 -176 mod 6;
#X msg 608 94 connect ottomann.local 50460;
#X obj 1348 -287 loadbang;
#X msg 858 162 send /control/navigator/run default;
#X obj 857 191 packOSC;
#X obj 859 214 iemnet/udpsend;
#X obj 990 397 bng 15 100 10 0 empty empty empty 0 -6 0 8 -262144 -1
-1;
#X obj 662 251 iemnet/udpreceive 9997;
#X obj 661 312 unpackOSC;
#X obj 668 361 print leon;
#X obj 999 357 route /test;
#X connect 0 0 5 0;
#X connect 2 0 1 2;
#X connect 3 0 8 2;
#X connect 4 0 8 1;
#X connect 5 0 8 0;
#X connect 8 0 1 0;
#X connect 8 0 10 0;
#X connect 8 1 1 1;
#X connect 8 1 11 0;
#X connect 12 0 53 0;
#X connect 12 0 67 0;
#X connect 13 0 15 0;
#X connect 14 0 30 0;
#X connect 14 0 0 0;
#X connect 14 0 45 0;
#X connect 14 0 49 0;
#X connect 15 0 12 0;
#X connect 16 0 97 0;
#X connect 17 0 90 0;
#X connect 18 0 14 0;
#X connect 20 0 18 0;
#X connect 23 0 31 0;
#X connect 23 0 60 0;
#X connect 23 0 73 0;
#X connect 24 0 25 0;
#X connect 25 0 23 0;
#X connect 26 0 27 0;
#X connect 26 0 28 0;
#X connect 26 0 2 0;
#X connect 26 0 103 0;
#X connect 27 0 4 0;
#X connect 28 0 3 0;
#X connect 33 0 107 0;
#X connect 35 0 105 0;
#X connect 36 0 35 0;
#X connect 37 0 36 0;
#X connect 38 0 40 0;
#X connect 38 0 82 0;
#X connect 39 0 38 0;
#X connect 39 1 38 1;
#X connect 41 0 13 0;
#X connect 42 0 43 0;
#X connect 42 0 46 0;
#X connect 43 0 42 1;
#X connect 44 0 41 0;
#X connect 45 0 42 0;
#X connect 46 0 44 0;
#X connect 47 0 48 0;
#X connect 47 0 50 0;
#X connect 48 0 47 1;
#X connect 49 0 47 0;
#X connect 50 0 24 0;
#X connect 51 0 52 0;
#X connect 52 0 16 0;
#X connect 53 0 54 0;
#X connect 53 0 56 0;
#X connect 54 0 53 1;
#X connect 55 0 51 0;
#X connect 56 0 55 0;
#X connect 58 0 59 0;
#X connect 59 0 57 0;
#X connect 60 0 61 0;
#X connect 60 0 63 0;
#X connect 61 0 60 1;
#X connect 62 0 58 0;
#X connect 63 0 62 0;
#X connect 64 0 32 0;
#X connect 65 0 66 0;
#X connect 66 0 64 0;
#X connect 67 0 68 0;
#X connect 67 0 69 0;
#X connect 68 0 67 1;
#X connect 69 0 65 0;
#X connect 71 0 72 0;
#X connect 72 0 70 0;
#X connect 73 0 74 0;
#X connect 73 0 75 0;
#X connect 74 0 73 1;
#X connect 75 0 71 0;
#X connect 78 0 36 0;
#X connect 82 0 85 0;
#X connect 82 1 83 0;
#X connect 82 2 84 0;
#X connect 82 3 86 0;
#X connect 82 4 89 0;
#X connect 83 0 36 1;
#X connect 84 0 36 1;
#X connect 85 0 36 1;
#X connect 85 0 36 0;
#X connect 86 0 36 1;
#X connect 87 0 36 0;
#X connect 88 0 36 0;
#X connect 89 0 36 1;
#X connect 90 0 18 1;
#X connect 90 0 101 0;
#X connect 91 0 37 0;
#X connect 92 0 88 0;
#X connect 93 0 87 0;
#X connect 94 0 78 0;
#X connect 95 0 96 0;
#X connect 96 0 100 0;
#X connect 97 0 98 0;
#X connect 97 0 102 0;
#X connect 98 0 97 1;
#X connect 99 0 95 0;
#X connect 102 0 99 0;
#X connect 103 0 107 0;
#X connect 104 0 84 0;
#X connect 105 0 106 0;
#X connect 106 0 107 0;
#X connect 109 0 110 0;
#X connect 110 0 111 0;
#X connect 110 0 112 0;
#X connect 112 0 108 0;
#X restore 706 628 pd turingsync;
#X obj 888 234 s hit;
#X obj 891 517 r step4;
#X obj 883 422 r tempo;
#X text 1745 -2 Main;
#X connect 0 0 39 1;
#X connect 1 0 0 0;
#X connect 2 0 3 0;
#X connect 3 0 1 0;
#X connect 4 0 40 0;
#X connect 5 0 34 1;
#X connect 6 0 5 0;
#X connect 7 0 6 0;
#X connect 8 0 13 0;
#X connect 8 0 12 0;
#X connect 8 0 20 0;
#X connect 8 0 31 0;
#X connect 9 0 7 0;
#X connect 10 0 11 0;
#X connect 11 0 9 0;
#X connect 12 0 4 0;
#X connect 13 0 10 0;
#X connect 14 0 150 1;
#X connect 15 0 14 0;
#X connect 16 0 15 0;
#X connect 17 0 16 0;
#X connect 18 0 19 0;
#X connect 19 0 17 0;
#X connect 20 0 18 0;
#X connect 21 0 35 1;
#X connect 22 0 21 0;
#X connect 23 0 22 0;
#X connect 24 0 23 0;
#X connect 25 0 24 0;
#X connect 26 0 27 0;
#X connect 26 0 28 0;
#X connect 26 0 142 0;
#X connect 26 0 68 0;
#X connect 26 0 53 0;
#X connect 26 0 59 0;
#X connect 26 0 61 0;
#X connect 26 0 113 0;
#X connect 27 0 58 0;
#X connect 27 0 60 0;
#X connect 27 0 62 0;
#X connect 28 0 29 0;
#X connect 29 0 57 0;
#X connect 30 0 104 0;
#X connect 31 0 36 0;
#X connect 32 0 65 0;
#X connect 33 0 65 0;
#X connect 34 0 30 0;
#X connect 35 0 63 0;
#X connect 36 0 25 0;
#X connect 37 0 38 0;
#X connect 38 0 36 1;
#X connect 39 0 30 0;
#X connect 40 0 2 0;
#X connect 41 0 42 0;
#X connect 42 0 10 1;
#X connect 43 0 44 0;
#X connect 44 0 4 1;
#X connect 45 0 46 0;
#X connect 46 0 18 1;
#X connect 47 0 108 0;
#X connect 47 0 154 0;
#X connect 48 0 225 0;
#X connect 49 0 50 0;
#X connect 50 0 51 0;
#X connect 51 0 30 1;
#X connect 52 0 49 0;
#X connect 53 0 64 0;
#X connect 53 0 272 0;
#X connect 54 0 103 0;
#X connect 57 0 35 0;
#X connect 58 0 34 0;
#X connect 59 0 150 0;
#X connect 60 0 150 0;
#X connect 61 0 39 0;
#X connect 62 0 39 0;
#X connect 63 0 30 0;
#X connect 64 0 91 0;
#X connect 65 0 26 0;
#X connect 65 0 159 1;
#X connect 66 0 160 1;
#X connect 67 0 161 1;
#X connect 68 0 48 0;
#X connect 69 0 26 0;
#X connect 69 0 66 0;
#X connect 70 0 69 1;
#X connect 71 0 158 1;
#X connect 72 0 145 0;
#X connect 72 0 158 0;
#X connect 72 0 167 0;
#X connect 73 0 69 0;
#X connect 73 0 72 0;
#X connect 73 0 166 0;
#X connect 74 0 69 1;
#X connect 75 0 158 1;
#X connect 76 0 65 0;
#X connect 77 0 69 1;
#X connect 78 0 69 1;
#X connect 78 0 158 1;
#X connect 79 0 65 0;
#X connect 80 0 65 0;
#X connect 80 0 69 1;
#X connect 81 0 33 0;
#X connect 81 0 70 0;
#X connect 81 0 71 0;
#X connect 81 1 32 0;
#X connect 81 1 74 0;
#X connect 81 1 75 0;
#X connect 81 2 86 0;
#X connect 81 2 82 0;
#X connect 81 2 85 0;
#X connect 81 3 76 0;
#X connect 81 3 77 0;
#X connect 81 4 80 0;
#X connect 81 5 143 0;
#X connect 81 6 79 0;
#X connect 81 6 144 0;
#X connect 81 7 78 0;
#X connect 81 9 84 0;
#X connect 82 0 65 0;
#X connect 83 0 158 1;
#X connect 84 0 66 0;
#X connect 84 0 65 0;
#X connect 85 0 69 1;
#X connect 86 0 158 1;
#X connect 87 0 271 0;
#X connect 88 0 8 0;
#X connect 90 0 81 0;
#X connect 90 0 89 0;
#X connect 91 0 48 0;
#X connect 92 0 94 0;
#X connect 93 0 120 0;
#X connect 94 0 100 0;
#X connect 95 0 96 0;
#X connect 96 0 99 0;
#X connect 97 0 98 0;
#X connect 98 0 93 1;
#X connect 99 0 97 0;
#X connect 100 0 93 2;
#X connect 101 0 92 0;
#X connect 103 0 139 0;
#X connect 104 0 102 1;
#X connect 104 0 102 0;
#X connect 105 0 169 0;
#X connect 106 0 104 1;
#X connect 107 0 105 0;
#X connect 108 0 122 0;
#X connect 109 0 111 1;
#X connect 111 0 102 0;
#X connect 111 0 102 1;
#X connect 112 0 95 0;
#X connect 113 0 114 0;
#X connect 113 0 115 0;
#X connect 114 0 93 0;
#X connect 115 0 121 0;
#X connect 116 0 117 0;
#X connect 117 0 118 0;
#X connect 118 0 120 1;
#X connect 119 0 116 0;
#X connect 120 0 111 0;
#X connect 121 0 93 0;
#X connect 122 0 109 0;
#X connect 123 0 269 0;
#X connect 124 0 107 0;
#X connect 125 0 119 0;
#X connect 126 0 125 0;
#X connect 127 0 126 0;
#X connect 128 0 266 0;
#X connect 129 0 130 0;
#X connect 130 0 140 0;
#X connect 131 0 132 0;
#X connect 132 0 222 0;
#X connect 133 0 131 0;
#X connect 133 1 131 1;
#X connect 139 0 47 0;
#X connect 140 0 101 0;
#X connect 142 0 47 0;
#X connect 142 0 54 0;
#X connect 143 0 65 0;
#X connect 144 0 158 1;
#X connect 145 0 168 0;
#X connect 145 0 174 0;
#X connect 145 0 178 0;
#X connect 146 0 209 0;
#X connect 147 0 146 0;
#X connect 148 0 209 0;
#X connect 149 0 148 0;
#X connect 150 0 30 0;
#X connect 151 0 209 0;
#X connect 152 0 151 0;
#X connect 153 0 110 0;
#X connect 155 0 147 0;
#X connect 156 0 149 0;
#X connect 157 0 176 0;
#X connect 158 0 67 0;
#X connect 158 0 26 0;
#X connect 159 0 155 0;
#X connect 160 0 157 0;
#X connect 161 0 156 0;
#X connect 162 0 163 0;
#X connect 163 0 73 1;
#X connect 163 0 72 1;
#X connect 163 0 164 0;
#X connect 164 0 145 1;
#X connect 169 0 106 0;
#X connect 170 0 172 0;
#X connect 171 0 208 1;
#X connect 172 0 171 0;
#X connect 173 0 170 0;
#X connect 174 0 159 0;
#X connect 174 0 161 0;
#X connect 174 0 160 0;
#X connect 174 0 252 0;
#X connect 175 0 173 0;
#X connect 176 0 152 0;
#X connect 177 0 181 0;
#X connect 178 0 185 0;
#X connect 178 0 187 0;
#X connect 178 0 253 0;
#X connect 179 0 175 0;
#X connect 179 0 180 0;
#X connect 180 0 246 0;
#X connect 181 0 179 0;
#X connect 182 0 183 0;
#X connect 182 0 234 0;
#X connect 183 0 184 0;
#X connect 184 0 234 0;
#X connect 185 0 188 0;
#X connect 185 0 254 0;
#X connect 186 0 182 0;
#X connect 189 0 186 0;
#X connect 190 0 194 0;
#X connect 191 0 192 0;
#X connect 191 0 233 0;
#X connect 192 0 193 0;
#X connect 193 0 233 0;
#X connect 194 0 191 0;
#X connect 195 0 258 0;
#X connect 196 0 175 0;
#X connect 196 0 177 0;
#X connect 197 0 259 0;
#X connect 198 0 262 0;
#X connect 199 0 264 0;
#X connect 200 0 190 0;
#X connect 200 0 233 0;
#X connect 201 0 189 0;
#X connect 201 0 234 0;
#X connect 202 0 252 1;
#X connect 203 0 253 1;
#X connect 204 0 254 1;
#X connect 208 0 245 0;
#X connect 209 0 208 0;
#X connect 209 0 235 0;
#X connect 209 0 244 0;
#X connect 210 0 102 0;
#X connect 211 0 102 1;
#X connect 212 0 214 0;
#X connect 213 0 211 1;
#X connect 213 0 210 1;
#X connect 214 0 213 0;
#X connect 215 0 212 0;
#X connect 216 0 218 0;
#X connect 217 0 232 1;
#X connect 218 0 217 0;
#X connect 219 0 216 0;
#X connect 223 0 87 0;
#X connect 224 0 52 0;
#X connect 226 0 219 0;
#X connect 227 0 215 0;
#X connect 228 0 256 0;
#X connect 229 0 257 0;
#X connect 231 0 210 0;
#X connect 231 1 211 0;
#X connect 232 0 102 1;
#X connect 232 0 102 0;
#X connect 233 0 239 0;
#X connect 234 0 243 0;
#X connect 235 0 245 0;
#X connect 236 0 238 0;
#X connect 237 0 235 1;
#X connect 238 0 237 0;
#X connect 239 0 236 0;
#X connect 240 0 242 0;
#X connect 241 0 244 1;
#X connect 242 0 241 0;
#X connect 243 0 240 0;
#X connect 244 0 245 0;
#X connect 245 0 232 0;
#X connect 245 0 231 0;
#X connect 246 0 175 0;
#X connect 249 0 247 0;
#X connect 250 0 251 0;
#X connect 251 0 249 0;
#X connect 252 0 196 0;
#X connect 253 0 200 0;
#X connect 254 0 201 0;
#X connect 255 0 254 0;
#X connect 256 0 226 0;
#X connect 257 0 227 0;
#X connect 258 0 202 0;
#X connect 259 0 195 0;
#X connect 260 0 203 0;
#X connect 261 0 204 0;
#X connect 262 0 263 0;
#X connect 263 0 260 0;
#X connect 264 0 265 0;
#X connect 265 0 261 0;
#X connect 266 0 267 0;
#X connect 267 0 268 0;
#X connect 268 0 112 0;
#X connect 269 0 124 0;
#X connect 273 0 73 0;
#X connect 273 0 90 0;
#X connect 273 0 141 0;
