#N canvas 24 121 1798 875 10;
#X obj 744 28 tgl 15 0 empty onoff empty 17 7 0 10 -262144 -1 -1 1
1;
#X obj 832 166 bng 15 250 50 0 empty empty empty 17 7 0 10 -262144
-1 -1;
#X obj 901 168 bng 15 250 50 0 empty empty empty 17 7 0 10 -262144
-1 -1;
#X obj 880 167 bng 15 250 50 0 empty empty empty 17 7 0 10 -262144
-1 -1;
#X obj 857 167 bng 15 250 50 0 empty empty empty 17 7 0 10 -262144
-1 -1;
#X floatatom 953 134 5 0 0 0 - - -, f 5;
#X obj 1400 96 hradio 15 1 0 4 empty empty empty 0 -8 0 10 -262144
-1 -1 2;
#X obj 673 188 bng 15 250 50 0 empty empty empty 17 7 0 10 -262144
-1 -1;
#X obj 730 186 bng 15 250 50 0 empty empty empty 17 7 0 10 -262144
-1 -1;
#X obj 756 187 bng 15 250 50 0 empty empty empty 17 7 0 10 -262144
-1 -1;
#X obj 724 211 1.2;
#X floatatom 667 157 5 0 0 0 - - -, f 5;
#X obj 655 210 1;
#X obj 750 211 1.5;
#X floatatom 738 339 5 0 0 0 - - -, f 5;
#X obj 876 510 *~;
#X obj 1216 77 vsl 15 128 10 127 0 0 empty empty empty 0 -9 0 10 -262144
-1 -1 0 1;
#X text 1292 33 Gain;
#X obj 877 460 clip~ -1 1;
#X obj 1301 75 vsl 15 128 1 80 0 0 empty empty empty 0 -9 0 10 -262144
-1 -1 965 1;
#X msg 932 393 \$1 75;
#X obj 929 412 line~;
#X msg 983 440 \$1 75;
#X obj 983 462 line~;
#X obj 827 697 dac~;
#X text 745 0 On-Off;
#X text 1448 61 Lent;
#X text 1376 64 Rapide;
#X obj 1402 156 hradio 15 1 0 5 empty empty empty 0 -8 0 10 -262144
-1 -1 2;
#X text 1375 130 Léger;
#X text 1447 127 Dense;
#X obj 777 187 bng 15 250 50 0 empty empty empty 17 7 0 10 -262144
-1 -1;
#X obj 779 211 2;
#X obj 844 345 line;
#X obj 843 324 pack f 10;
#X obj 968 76 select 0 1 2 3 4;
#X obj 707 247 * 110;
#X obj 933 572 mtof;
#X obj 920 591 lop~;
#X obj 935 504 receive lop2;
#X obj 1141 246 hsl 128 15 50 127 0 0 empty empty empty -2 -8 0 10
-262144 -1 -1 2309 1;
#X obj 1141 265 send lop2;
#X msg 981 224 100;
#X obj 924 325 r Gain;
#X obj 1328 191 s Gain;
#X obj 1322 246 hsl 128 15 0 127 0 0 empty empty empty -2 -8 0 10 -262144
-1 -1 4000 1;
#X obj 1320 270 send hip;
#X obj 1008 537 receive hip;
#X obj 920 632 hip~;
#X msg 1035 224 40;
#X obj 974 199 loadbang;
#X text 1340 34 Séquenceur Aléatoire;
#N canvas 2 95 1596 817 adsr 0;
#X obj 115 121 inlet;
#X obj 445 161 inlet;
#X text 111 96 trigger;
#X obj 115 149 sel 0;
#X obj 254 165 t b;
#X obj 176 274 f \$1;
#X obj 502 161 inlet;
#X obj 448 291 del \$2;
#X obj 468 439 line~;
#X obj 472 314 f \$4;
#X obj 511 389 pack 0 \$3;
#X obj 564 161 inlet;
#X obj 626 161 inlet;
#X obj 699 160 inlet;
#X msg 115 180 stop;
#X obj 622 316 pack 0 \$5;
#X text 445 139 level;
#X obj 511 365 * \$1;
#X obj 468 464 outlet~;
#X text 112 388 and pack with;
#X text 113 408 attack time;
#X text 41 136 if zero;
#X text 42 153 release;
#X text 22 170 and cancel;
#X text 53 187 decay;
#X text 294 282 on attack \, set a;
#X text 288 315 recall sustain value;
#X text 325 388 pack with decay time;
#X text 615 342 on release ramp;
#X text 616 359 back to zero;
#X obj 472 339 * 0.01;
#X text 57 577 Objects such as "f" and "pack" can be given dollar sign
arguments to initialize their contents from adsr's creation arguments.
Inlets are supplied to change them on the fly.;
#X text 23 12 ADSR ENVELOPE;
#X text 498 139 attack;
#X text 565 138 decay;
#X text 619 139 sustain;
#X text 696 139 release;
#X text 212 81 attack;
#X obj 214 102 moses;
#X obj 204 132 t b b;
#X msg 138 300 0;
#X text 30 283 optionally;
#X text 20 301 bash to zero;
#X text 35 256 ATTACK:;
#X text 59 487 When you send this patch a positive trigger it schedules
a line~ to do an attack and decay \, and if zero \, it starts the release
ramp.;
#X text 505 639 Updated for Pd version 0.37;
#X text 265 99 test for negative trigger;
#X text 263 123 if so \, zero;
#X text 264 139 the output;
#X text 288 175 in any case;
#X text 313 365 multiply by peak level;
#X text 290 296 delay for sustain;
#X text 286 338 convert from percent;
#X text 165 350 ... then;
#X text 113 369 recall peak level;
#X text 449 123 peak;
#X text 291 159 ... do this;
#X text 57 539 Negative triggers cause the output to jump to zero and
then attack (instead of attacking from the current location).;
#X text 218 11 Arguments: level \, attack time \, decay time \, sustain
level \, release time. A \, D \, and R are in msec and S is in percent.
This patch is used as an abstraction in various examples.;
#X obj 176 301 pack 0.2 \$2;
#X connect 0 0 3 0;
#X connect 1 0 5 1;
#X connect 1 0 17 1;
#X connect 3 0 14 0;
#X connect 3 0 15 0;
#X connect 3 1 38 0;
#X connect 4 0 5 0;
#X connect 4 0 7 0;
#X connect 5 0 59 0;
#X connect 6 0 7 1;
#X connect 6 0 59 1;
#X connect 7 0 9 0;
#X connect 8 0 18 0;
#X connect 9 0 30 0;
#X connect 10 0 8 0;
#X connect 11 0 10 1;
#X connect 12 0 9 1;
#X connect 13 0 15 1;
#X connect 14 0 7 0;
#X connect 15 0 8 0;
#X connect 17 0 10 0;
#X connect 30 0 17 0;
#X connect 38 0 39 0;
#X connect 38 1 4 0;
#X connect 39 0 4 0;
#X connect 39 1 40 0;
#X connect 40 0 8 0;
#X connect 59 0 8 0;
#X restore 1096 606 pd adsr;
#X text 637 293 Fréquence (Hz):;
#X text 1262 354 decay;
#X text 1379 354 release;
#X obj 1274 391 vsl 15 128 0 250 0 0 empty empty empty 0 -9 0 10 -262144
-1 -1 5695 1;
#X obj 1388 392 vsl 15 128 0 1500 0 0 empty empty empty 0 -9 0 10 -262144
-1 -1 2455 1;
#X obj 1011 486 loadbang;
#X msg 1018 510 1;
#X obj 878 431 *~;
#X obj 1134 336 bng 15 80 50 0 empty empty empty 17 7 0 10 -262144
-1 -1;
#X msg 1070 436 \; triger 0;
#X obj 1267 580 r triger;
#X obj 1072 414 del 250;
#X text 1159 214 ====LPF====;
#X text 1343 216 ====HPF====;
#X text 1211 312 ====ADSR Envellope====;
#X obj 850 567 env~;
#X obj 850 589 - 100;
#X obj 835 621 s leadvol;
#X obj 1132 82 vu 15 120 empty empty -1 -8 0 10 -66577 -1 1 0;
#X obj 1129 59 r leadvol;
#X text 1117 0 ****************************LEAD****************************
;
#X obj 1239 185 s leadamp;
#X obj 979 371 r leadamp;
#X text 1212 37 Amp;
#X obj 1071 322 trigger b;
#X obj 1135 300 r trig;
#X obj 1328 113 s turing;
#X obj 1333 150 s test;
#X obj 967 52 r test;
#X obj 857 677 +~;
#X text 657 -1 Turing Test :;
#X obj 969 167 table leadsortie;
#X obj 972 617 mtof;
#X obj 929 551 line;
#X obj 978 590 line;
#X obj 982 565 pack f 200;
#X obj 928 530 pack f 200;
#X obj 981 418 dbtorms;
#X obj 1216 54 ctlin 8;
#X obj 981 395 * 0.8;
#X obj 1286 51 ctlin 7;
#X obj 1234 217 ctlin 6;
#X obj 933 371 * 0.5;
#X obj 925 268 select 69;
#X obj 924 225 notein;
#X obj 925 247 stripnote;
#X obj 976 324 loadbang;
#X msg 976 345 100;
#X text 734 315 lead;
#X obj 1406 581 loadbang;
#X msg 1413 605 290;
#X obj 1345 579 loadbang;
#X obj 1673 113 notein;
#X obj 1669 137 stripnote;
#X msg 1713 188 3;
#X msg 1651 185 1;
#X msg 1582 185 0;
#X msg 1681 188 2;
#X msg 1744 191 4;
#X obj 876 483 *~;
#X obj 817 368 * 1.5;
#X obj 746 122 random 7;
#X obj 872 225 * 2;
#X obj 842 300 *;
#X msg 1072 365 \; pd dsp 1 \; triger 1 \;;
#X obj 832 144 select 0 1 2 3;
#X obj 1071 101 4;
#X obj 1041 103 6;
#X obj 1014 102 13;
#X obj 823 189 0.75;
#X obj 855 188 1;
#X obj 886 190 1.5;
#X obj 916 190 2;
#X obj 937 99 1e+06;
#X obj 1522 -3 loadbang;
#X msg 1542 26 2;
#X obj 1071 303 moses 4;
#X obj 924 288 s onoff;
#N canvas 24 121 1798 875 turingsync 1;
#X obj 304 87 bng 15 100 50 0 empty empty empty 0 -6 0 8 -262144 -1
-1;
#X obj 390 224 noteout;
#X msg 431 199 1;
#X floatatom 395 141 0 0 0 0 - - -;
#X floatatom 355 114 0 0 0 0 - - -;
#X msg 304 125 60;
#X text 381 110 "velocity";
#X text 420 141 duration in milliseconds;
#X obj 299 165 makenote 3.2 500;
#X text 358 22 Midi out;
#X floatatom 288 216 0 0 0 0 - - -;
#X floatatom 335 209 0 0 0 0 - - -;
#X obj 568 -153 bng 15 100 50 0 empty empty empty 17 7 0 10 -262144
-1 -1;
#X floatatom 567 -197 5 0 0 0 - - -, f 5;
#X obj 459 -272 bng 15 200 200 0 empty empty empty 0 -6 0 8 -262144
-1 -1;
#X obj 567 -175 select 1;
#X obj 647 -51 bng 15 100 50 0 empty empty empty 0 -6 0 8 -262144 -1
-1;
#X obj 507 -370 loadbang;
#X obj 458 -318 metro;
#X obj 455 -357 inlet;
#X text 401 -334 On-Off;
#X text 548 -342 Tempo;
#X obj 384 -163 bng 15 100 10 0 empty empty empty 17 7 0 10 -262144
-1 -1;
#X floatatom 383 -207 5 0 0 0 - - -, f 5;
#X obj 383 -185 select 1;
#X msg 514 -346 250;
#X obj 493 52 loadbang;
#X msg 478 81 80;
#X msg 536 85 10;
#X text 464 198 channel;
#X obj 278 -204 s step1;
#X obj 258 -164 s step2;
#X obj 255 -131 s step3;
#X text 678 22 PC out;
#X obj 561 240 bng 15 100 50 0 empty empty empty 0 -6 0 8 -262144 -1
-1;
#X obj 1161 128 select;
#X msg 987 -202 2;
#X obj 1379 -161 stripnote;
#X obj 1386 -184 notein;
#X floatatom 1396 -233 5 0 0 0 - - -, f 5;
#X obj 1147 -250 r step1;
#X obj 989 -228 r hit1;
#X floatatom 521 -241 5 0 0 0 - - -, f 5;
#X obj 560 -283 float;
#X obj 614 -283 + 1;
#X obj 561 -232 + 1;
#X obj 519 -277 bng 15 250 50 0 empty empty empty 17 7 0 10 -262144
-1 -1;
#X obj 562 -258 mod 2;
#X obj 368 -263 float;
#X obj 422 -263 + 1;
#X obj 327 -257 bng 15 250 50 0 empty empty empty 17 7 0 10 -262144
-1 -1;
#X obj 367 -238 mod 2;
#X floatatom 664 -105 5 0 0 0 - - -, f 5;
#X obj 664 -83 select 1;
#X obj 657 -191 float;
#X obj 711 -191 + 1;
#X obj 658 -140 + 1;
#X obj 659 -166 mod 2;
#X obj 558 -41 bng 15 100 50 0 empty empty empty 0 -6 0 8 -262144 -1
-1;
#X floatatom 559 -74 5 0 0 0 - - -, f 5;
#X obj 559 -61 select 1;
#X obj 561 -132 float;
#X obj 615 -132 + 1;
#X obj 560 -92 + 1;
#X obj 561 -113 mod 2;
#X obj 489 -28 bng 15 100 10 0 empty empty empty 17 7 0 10 -262144
-1 -1;
#X floatatom 486 -75 5 0 0 0 - - -, f 5;
#X obj 486 -53 select 1;
#X obj 471 -131 float;
#X obj 521 -127 + 1;
#X obj 470 -106 mod 2;
#X obj 368 -36 bng 15 100 10 0 empty empty empty 17 7 0 10 -262144
-1 -1;
#X floatatom 369 -86 5 0 0 0 - - -, f 5;
#X obj 367 -66 select 1;
#X obj 370 -130 float;
#X obj 425 -123 + 1;
#X obj 371 -109 mod 2;
#X msg 559 270 1;
#X obj 582 295 oscformat debug;
#X obj 1080 81 bng 15 100 10 0 empty empty empty 0 -6 0 8 -262144 -1
-1;
#X msg 1057 -209 3;
#X text 1067 -263 Lent;
#X text 991 -256 Hit;
#X text 922 -259 Step;
#X msg 1260 -11 2;
#X msg 1300 -10 3;
#X obj 1065 -235 r step2;
#X msg 930 -214 1, f 1;
#X msg 1345 -9 4;
#X msg 1139 -224 4;
#X msg 783 195 disconnect;
#X msg 856 215 send /control/navigator/run default;
#X obj 855 244 packOSC;
#X obj 857 267 iemnet/udpsend;
#X obj 855 244 packOSC;
#X obj 63 -345 unpackOSC;
#X obj 62 -325 route /clock;
#X obj 103 -273 + 1;
#X obj 91 -297 bng 15 250 50 0 empty empty empty 17 7 0 10 -262144
-1 -1;
#X obj 54 -228 mod 2;
#X obj 50 -175 select 1;
#X obj 55 -253 float 0;
#X obj 49 -142 bng 15 250 50 0 empty empty empty 17 7 0 10 -262144
-1 -1;
#X obj 59 -297 bng 15 250 50 0 empty empty empty 17 7 0 10 -262144
-1 -1;
#X obj 125 -232 tgl 15 0 empty empty empty 17 7 0 10 -262144 -1 -1
0 1;
#X text 401 -334 On-Off;
#X text 117 -256 On-Off;
#X text 216 -307 Connecter ici pour être independant;
#X text 56 -382 Clock Core;
#X text 480 -385 Clock interne;
#X msg 771 169 connect 10.0.0.2 50460;
#X obj 48 -204 float 1;
#X obj 62 -363 iemnet/udpreceive 4242;
#X obj 1270 -98 select 1 9 17 25 68;
#X obj 715 111 bng 15 100 10 0 empty empty empty 0 -6 0 8 -262144 -1
-1;
#X obj 765 115 delay 50;
#X text 1149 -278 Normal;
#X obj 1139 -328 loadbang;
#X obj 892 -84 select 1;
#X obj 833 -19 s boutonstep;
#X obj 942 -15 s boutonautre;
#X obj 787 -42 bng 15 100 50 0 empty empty empty 0 -6 0 8 -262144 -1
-1;
#X obj 982 -40 bng 15 100 50 0 empty empty empty 0 -6 0 8 -262144 -1
-1;
#X text 111 107 Connecter ici pour midi out;
#X connect 2 0 1 2;
#X connect 3 0 8 2;
#X connect 4 0 8 1;
#X connect 5 0 8 0;
#X connect 8 0 1 0;
#X connect 8 0 10 0;
#X connect 8 1 1 1;
#X connect 8 1 11 0;
#X connect 12 0 54 0;
#X connect 12 0 68 0;
#X connect 13 0 15 0;
#X connect 14 0 30 0;
#X connect 14 0 0 0;
#X connect 14 0 46 0;
#X connect 14 0 50 0;
#X connect 15 0 12 0;
#X connect 17 0 25 0;
#X connect 19 0 18 0;
#X connect 19 0 98 0;
#X connect 22 0 31 0;
#X connect 22 0 61 0;
#X connect 22 0 74 0;
#X connect 23 0 24 0;
#X connect 24 0 22 0;
#X connect 25 0 18 1;
#X connect 26 0 27 0;
#X connect 26 0 28 0;
#X connect 26 0 2 0;
#X connect 27 0 4 0;
#X connect 28 0 3 0;
#X connect 34 0 77 0;
#X connect 35 0 79 0;
#X connect 36 0 35 0;
#X connect 37 0 39 0;
#X connect 37 0 113 0;
#X connect 38 0 37 0;
#X connect 38 1 37 1;
#X connect 40 0 89 0;
#X connect 41 0 36 0;
#X connect 42 0 13 0;
#X connect 43 0 44 0;
#X connect 43 0 47 0;
#X connect 44 0 43 1;
#X connect 45 0 42 0;
#X connect 46 0 43 0;
#X connect 47 0 45 0;
#X connect 48 0 49 0;
#X connect 48 0 51 0;
#X connect 49 0 48 1;
#X connect 50 0 48 0;
#X connect 51 0 23 0;
#X connect 52 0 53 0;
#X connect 53 0 16 0;
#X connect 54 0 55 0;
#X connect 54 0 57 0;
#X connect 55 0 54 1;
#X connect 56 0 52 0;
#X connect 57 0 56 0;
#X connect 59 0 60 0;
#X connect 60 0 58 0;
#X connect 61 0 62 0;
#X connect 61 0 64 0;
#X connect 62 0 61 1;
#X connect 63 0 59 0;
#X connect 64 0 63 0;
#X connect 65 0 32 0;
#X connect 66 0 67 0;
#X connect 67 0 65 0;
#X connect 68 0 69 0;
#X connect 68 0 70 0;
#X connect 69 0 68 1;
#X connect 70 0 66 0;
#X connect 72 0 73 0;
#X connect 73 0 71 0;
#X connect 74 0 75 0;
#X connect 74 0 76 0;
#X connect 75 0 74 1;
#X connect 76 0 72 0;
#X connect 77 0 78 0;
#X connect 79 0 91 0;
#X connect 80 0 35 0;
#X connect 84 0 35 1;
#X connect 84 0 118 0;
#X connect 85 0 35 1;
#X connect 85 0 118 0;
#X connect 86 0 80 0;
#X connect 87 0 35 1;
#X connect 87 0 35 0;
#X connect 87 0 118 0;
#X connect 88 0 35 1;
#X connect 88 0 118 0;
#X connect 89 0 35 0;
#X connect 90 0 93 0;
#X connect 91 0 92 0;
#X connect 92 0 93 0;
#X connect 95 0 96 0;
#X connect 96 0 103 0;
#X connect 97 0 101 1;
#X connect 98 0 101 0;
#X connect 99 0 104 0;
#X connect 99 0 111 1;
#X connect 100 0 102 0;
#X connect 101 0 97 0;
#X connect 101 0 99 0;
#X connect 102 0 14 0;
#X connect 103 0 111 0;
#X connect 110 0 93 0;
#X connect 111 0 100 0;
#X connect 112 0 95 0;
#X connect 113 0 87 0;
#X connect 113 1 84 0;
#X connect 113 2 85 0;
#X connect 113 3 88 0;
#X connect 113 4 114 0;
#X connect 114 0 90 0;
#X connect 114 0 115 0;
#X connect 115 0 110 0;
#X connect 117 0 89 0;
#X connect 118 0 119 0;
#X connect 118 0 121 0;
#X connect 118 1 120 0;
#X connect 118 1 122 0;
#X restore 744 62 pd turingsync;
#X obj 870 256 s hit1;
#X obj 1034 896 r test;
#X obj 920 652 rev2~ 100 90 3000 20;
#X obj 1599 161 select 0 8 16 24 32;
#X obj 986 103 30;
#X obj 869 370 osc~;
#X obj 817 390 osc~;
#X obj 663 134 random 4;
#X obj 705 159 select 0 1 2 3;
#X obj 815 411 *~ 0.1;
#X obj 574 49 r step1;
#X obj 372 123 select 1;
#X msg 372 79 1;
#X msg 441 85 1;
#X msg 406 83 2;
#X obj 369 38 r boutonstep;
#X obj 459 37 r boutonautre;
#X obj 858 95 f;
#X msg 230 111 4;
#X obj 856 72 bng 15 250 50 0 empty empty empty 17 7 0 10 -262144 -1
-1;
#X floatatom 1465 524 5 0 0 0 - - -, f 5;
#X msg 1352 603 50;
#X obj 920 687 *~ 0.3;
#X obj 1592 481 ctlin 4;
#X obj 1582 516 * 1.9;
#X obj 533 308 * 2;
#X obj 542 335 * 1.5;
#N canvas 23 127 1798 875 square1 0;
#X obj 276 249 phasor~;
#X obj 281 365 expr~ $v1 > $v2;
#X obj 385 256 abs~;
#X obj 378 316 +~ 0.01;
#X obj 381 283 *~ 0.9;
#X obj 382 228 osc~ 0.05;
#X obj 270 207 inlet;
#X obj 270 408 outlet~;
#X connect 0 0 1 0;
#X connect 1 0 7 0;
#X connect 2 0 4 0;
#X connect 3 0 1 1;
#X connect 4 0 3 0;
#X connect 5 0 2 0;
#X connect 6 0 0 0;
#X restore 346 392 pd square1;
#N canvas 22 133 1798 875 square2 0;
#X obj 276 249 phasor~;
#X obj 281 365 expr~ $v1 > $v2;
#X obj 385 256 abs~;
#X obj 378 316 +~ 0.01;
#X obj 381 283 *~ 0.9;
#X obj 382 228 osc~ 0.05;
#X obj 270 207 inlet;
#X obj 270 408 outlet~;
#X connect 0 0 1 0;
#X connect 1 0 7 0;
#X connect 2 0 4 0;
#X connect 3 0 1 1;
#X connect 4 0 3 0;
#X connect 5 0 2 0;
#X connect 6 0 0 0;
#X restore 442 400 pd square2;
#N canvas 23 127 1798 875 square3 0;
#X obj 276 249 phasor~;
#X obj 281 365 expr~ $v1 > $v2;
#X obj 385 256 abs~;
#X obj 378 316 +~ 0.01;
#X obj 381 283 *~ 0.9;
#X obj 382 228 osc~ 0.05;
#X obj 270 207 inlet;
#X obj 270 408 outlet~;
#X connect 0 0 1 0;
#X connect 1 0 7 0;
#X connect 2 0 4 0;
#X connect 3 0 1 1;
#X connect 4 0 3 0;
#X connect 5 0 2 0;
#X connect 6 0 0 0;
#X restore 547 395 pd square3;
#X obj 403 446 +~;
#X obj 460 338 * 1.2;
#X obj 425 179 bng 15 250 50 0 empty empty empty 17 7 0 10 -262144
-1 -1;
#X obj 424 207 + 1;
#X obj 422 235 mod 2;
#X obj 420 261 select 0;
#X connect 0 0 131 0;
#X connect 1 0 122 0;
#X connect 2 0 125 0;
#X connect 3 0 124 0;
#X connect 4 0 123 0;
#X connect 5 0 129 0;
#X connect 6 0 79 0;
#X connect 7 0 12 0;
#X connect 8 0 10 0;
#X connect 9 0 13 0;
#X connect 10 0 36 0;
#X connect 11 0 140 0;
#X connect 12 0 36 0;
#X connect 13 0 36 0;
#X connect 14 0 113 0;
#X connect 14 0 137 0;
#X connect 15 0 38 0;
#X connect 16 0 74 0;
#X connect 18 0 112 0;
#X connect 19 0 44 0;
#X connect 20 0 21 0;
#X connect 21 0 60 1;
#X connect 22 0 23 0;
#X connect 23 0 15 1;
#X connect 28 0 80 0;
#X connect 31 0 32 0;
#X connect 32 0 36 0;
#X connect 33 0 14 0;
#X connect 34 0 33 0;
#X connect 35 0 126 0;
#X connect 35 1 136 0;
#X connect 35 2 121 0;
#X connect 35 3 120 0;
#X connect 35 4 119 0;
#X connect 36 0 116 1;
#X connect 36 0 157 0;
#X connect 37 0 38 1;
#X connect 38 0 48 0;
#X connect 39 0 89 0;
#X connect 40 0 41 0;
#X connect 42 0 40 0;
#X connect 43 0 95 0;
#X connect 45 0 46 0;
#X connect 47 0 88 0;
#X connect 48 0 68 0;
#X connect 48 0 82 1;
#X connect 48 0 134 0;
#X connect 49 0 45 0;
#X connect 50 0 42 0;
#X connect 50 0 49 0;
#X connect 52 0 112 1;
#X connect 56 0 52 3;
#X connect 56 0 152 0;
#X connect 57 0 52 5;
#X connect 58 0 59 0;
#X connect 59 0 52 1;
#X connect 60 0 18 0;
#X connect 63 0 52 0;
#X connect 64 0 62 0;
#X connect 68 0 69 0;
#X connect 69 0 70 0;
#X connect 72 0 71 0;
#X connect 75 0 92 0;
#X connect 77 0 64 0;
#X connect 77 0 117 0;
#X connect 78 0 61 0;
#X connect 81 0 35 0;
#X connect 82 0 24 0;
#X connect 82 0 24 1;
#X connect 85 0 48 1;
#X connect 86 0 37 0;
#X connect 87 0 85 0;
#X connect 88 0 87 0;
#X connect 89 0 86 0;
#X connect 90 0 22 0;
#X connect 91 0 16 0;
#X connect 92 0 90 0;
#X connect 93 0 19 0;
#X connect 94 0 40 0;
#X connect 95 0 20 0;
#X connect 96 0 130 0;
#X connect 97 0 98 0;
#X connect 97 1 98 1;
#X connect 98 0 96 0;
#X connect 99 0 100 0;
#X connect 100 0 95 0;
#X connect 102 0 103 0;
#X connect 103 0 52 5;
#X connect 103 0 57 0;
#X connect 104 0 153 0;
#X connect 105 0 106 0;
#X connect 105 1 106 1;
#X connect 106 0 135 0;
#X connect 107 0 28 0;
#X connect 108 0 28 0;
#X connect 109 0 28 0;
#X connect 110 0 28 0;
#X connect 111 0 28 0;
#X connect 112 0 15 0;
#X connect 113 0 138 0;
#X connect 114 0 5 0;
#X connect 114 0 118 0;
#X connect 115 0 116 0;
#X connect 115 0 132 0;
#X connect 116 0 34 0;
#X connect 118 0 1 0;
#X connect 118 1 4 0;
#X connect 118 2 3 0;
#X connect 118 3 2 0;
#X connect 119 0 149 0;
#X connect 120 0 149 0;
#X connect 121 0 149 0;
#X connect 122 0 115 0;
#X connect 123 0 115 0;
#X connect 124 0 115 0;
#X connect 125 0 115 0;
#X connect 126 0 149 0;
#X connect 127 0 128 0;
#X connect 128 0 6 0;
#X connect 129 0 77 0;
#X connect 134 0 154 0;
#X connect 135 0 109 0;
#X connect 135 1 108 0;
#X connect 135 2 110 0;
#X connect 135 3 107 0;
#X connect 135 4 111 0;
#X connect 136 0 149 0;
#X connect 137 0 60 0;
#X connect 138 0 141 0;
#X connect 139 0 11 0;
#X connect 140 0 7 0;
#X connect 140 1 31 0;
#X connect 140 2 8 0;
#X connect 140 3 9 0;
#X connect 141 0 60 0;
#X connect 142 0 144 0;
#X connect 143 0 139 0;
#X connect 143 0 114 0;
#X connect 144 0 143 0;
#X connect 145 0 143 1;
#X connect 146 0 143 1;
#X connect 146 0 143 0;
#X connect 147 0 146 0;
#X connect 147 0 150 0;
#X connect 148 0 145 0;
#X connect 148 0 151 0;
#X connect 149 0 114 1;
#X connect 150 0 114 1;
#X connect 151 0 149 0;
#X connect 153 0 52 3;
#X connect 153 0 56 0;
#X connect 154 0 82 1;
#X connect 155 0 156 0;
#X connect 156 0 56 0;
#X connect 157 0 159 0;
#X connect 157 0 158 0;
#X connect 157 0 163 0;
#X connect 158 0 161 0;
#X connect 159 0 162 0;
#X connect 160 0 162 0;
#X connect 161 0 162 0;
#X connect 163 0 160 0;
#X connect 164 0 165 0;
#X connect 165 0 166 0;
#X connect 166 0 167 0;
#X coords 0 875 1 874 85 60 0;
