#N canvas 0 93 1824 891 12;
#X obj 157 349 sig~;
#X floatatom 157 320 5 0 0 0 - - -, f 5;
#X obj 99 279 mtof;
#X obj 188 84 vsl 15 128 50 3000 0 0 empty empty empty 0 -9 0 10 -262144
-1 -1 216 1;
#N canvas 2 95 450 300 lfo 0;
#X obj 129 57 loadbang;
#X msg 173 87 90;
#X obj 150 136 f 1;
#X obj 179 138 +;
#X obj 148 156 cos;
#X obj 151 115 metro 2;
#X obj 177 160 *;
#X obj 150 177 +;
#X obj 156 243 outlet;
#X obj 77 72 bng 15 250 50 0 empty empty empty 17 7 0 10 -262144 -1
-1;
#X obj 236 97 * 0.25;
#X obj 1 71 * 0.001;
#X obj 0 35 inlet;
#X msg 47 33 freq;
#X obj 234 68 inlet;
#X msg 300 106 amount;
#X connect 0 0 1 0;
#X connect 0 0 5 0;
#X connect 2 0 3 0;
#X connect 2 0 4 0;
#X connect 3 0 2 1;
#X connect 4 0 6 0;
#X connect 5 0 2 0;
#X connect 5 0 7 0;
#X connect 6 0 7 1;
#X connect 7 0 8 0;
#X connect 9 0 5 0;
#X connect 10 0 6 1;
#X connect 11 0 3 1;
#X connect 12 0 11 0;
#X connect 14 0 10 0;
#X restore 79 200 pd lfo;
#X obj 569 332 sig~;
#X floatatom 569 303 5 0 0 0 - - -, f 5;
#X obj 576 96 vsl 15 128 50 3000 0 0 empty empty empty 0 -9 0 10 -262144
-1 -1 1485 1;
#X obj 244 52 bng 15 250 50 0 empty empty empty 17 7 0 10 -262144 -1
-1;
#X obj 461 378 mtof;
#N canvas 2 95 450 300 lfo 0;
#X obj 129 57 loadbang;
#X msg 173 87 90;
#X obj 150 136 f 1;
#X obj 179 138 +;
#X obj 148 156 cos;
#X obj 151 115 metro 2;
#X obj 177 160 *;
#X obj 150 177 +;
#X obj 156 243 outlet;
#X obj 77 72 bng 15 250 50 0 empty empty empty 17 7 0 10 -262144 -1
-1;
#X obj 236 97 * 0.25;
#X obj 1 71 * 0.001;
#X obj 0 35 inlet;
#X msg 47 33 freq;
#X obj 234 68 inlet;
#X msg 300 106 amount;
#X connect 0 0 1 0;
#X connect 0 0 5 0;
#X connect 2 0 3 0;
#X connect 2 0 4 0;
#X connect 3 0 2 1;
#X connect 4 0 6 0;
#X connect 5 0 2 0;
#X connect 5 0 7 0;
#X connect 6 0 7 1;
#X connect 7 0 8 0;
#X connect 9 0 5 0;
#X connect 10 0 6 1;
#X connect 11 0 3 1;
#X connect 12 0 11 0;
#X connect 14 0 10 0;
#X restore 441 299 pd lfo;
#X obj 447 331 + 67;
#X msg 97 154 4;
#X msg 440 275 3;
#X obj 372 359 sig~;
#X floatatom 372 330 5 0 0 0 - - -, f 5;
#X obj 389 92 vsl 15 128 50 3000 0 0 empty empty empty 0 -9 0 10 -262144
-1 -1 610 1;
#X obj 258 407 mtof;
#N canvas 2 95 450 300 lfo 0;
#X obj 129 57 loadbang;
#X msg 173 87 90;
#X obj 150 136 f 1;
#X obj 179 138 +;
#X obj 148 156 cos;
#X obj 151 115 metro 2;
#X obj 177 160 *;
#X obj 150 177 +;
#X obj 156 243 outlet;
#X obj 77 72 bng 15 250 50 0 empty empty empty 17 7 0 10 -262144 -1
-1;
#X obj 236 97 * 0.25;
#X obj 1 71 * 0.001;
#X obj 0 35 inlet;
#X msg 47 33 freq;
#X obj 234 68 inlet;
#X msg 300 106 amount;
#X connect 0 0 1 0;
#X connect 0 0 5 0;
#X connect 2 0 3 0;
#X connect 2 0 4 0;
#X connect 3 0 2 1;
#X connect 4 0 6 0;
#X connect 5 0 2 0;
#X connect 5 0 7 0;
#X connect 6 0 7 1;
#X connect 7 0 8 0;
#X connect 9 0 5 0;
#X connect 10 0 6 1;
#X connect 11 0 3 1;
#X connect 12 0 11 0;
#X connect 14 0 10 0;
#X restore 244 351 pd lfo;
#X obj 250 383 + 67;
#X msg 243 326 6;
#X obj 728 329 sig~;
#X floatatom 728 300 5 0 0 0 - - -, f 5;
#X obj 733 99 vsl 15 128 50 3000 0 0 empty empty empty 0 -9 0 10 -262144
-1 -1 3790 1;
#X obj 650 376 mtof;
#X obj 636 329 + 67;
#X obj 1120 127 mtof;
#X obj 660 106 / 2;
#X obj 773 74 / 3;
#X obj 790 98 * 4;
#X obj 237 563 *~;
#X msg 621 263 2;
#X msg 1511 22 63;
#X msg 1326 25 55;
#X msg 1272 21 53;
#X obj 359 389 vcf~ 0.9;
#X obj 556 362 vcf~ 0.8;
#X obj 715 359 vcf~ 0.6;
#N canvas 2 101 450 300 lfo 0;
#X obj 129 57 loadbang;
#X msg 173 87 90;
#X obj 150 136 f 1;
#X obj 179 138 +;
#X obj 148 156 cos;
#X obj 151 115 metro 2;
#X obj 177 160 *;
#X obj 150 177 +;
#X obj 156 243 outlet;
#X obj 77 72 bng 15 250 50 0 empty empty empty 17 7 0 10 -262144 -1
-1;
#X obj 236 97 * 0.25;
#X obj 1 71 * 0.001;
#X obj 0 35 inlet;
#X msg 47 33 freq;
#X obj 234 68 inlet;
#X msg 300 106 amount;
#X connect 0 0 1 0;
#X connect 0 0 5 0;
#X connect 2 0 3 0;
#X connect 2 0 4 0;
#X connect 3 0 2 1;
#X connect 4 0 6 0;
#X connect 5 0 2 0;
#X connect 5 0 7 0;
#X connect 6 0 7 1;
#X connect 7 0 8 0;
#X connect 9 0 5 0;
#X connect 10 0 6 1;
#X connect 11 0 3 1;
#X connect 12 0 11 0;
#X connect 14 0 10 0;
#X restore 630 297 pd lfo;
#X obj 672 235 loadbang;
#X msg 671 267 95;
#X obj 144 379 vcf~ 0.9;
#X obj 85 232 + 67;
#X obj 868 -60 loadbang;
#X obj 480 223 loadbang;
#X msg 479 255 95;
#X obj 102 87 loadbang;
#X msg 101 119 102;
#X obj 272 259 loadbang;
#X msg 271 291 90;
#X obj 1170 214 sig~;
#X obj 847 297 phasor~;
#X obj 883 438 *~;
#X obj 1260 332 line;
#X obj 939 323 dbtorms;
#X msg 931 347 \$1 75;
#X obj 931 370 line~;
#X obj 855 341 vcf~ 0.7;
#X obj 358 494 line;
#X obj 41 601 dbtorms;
#X msg 41 623 \$1 75;
#X obj 40 652 line~;
#X obj 117 471 vsl 15 128 0 90 0 0 empty empty empty 0 -9 0 10 -262144
-1 -1 11467 1;
#X obj 395 436 bng 15 250 50 0 empty empty empty 17 7 0 10 -262144
-1 -1;
#X obj 1256 284 bng 15 250 50 0 empty empty empty 17 7 0 10 -262144
-1 -1;
#X text 361 303 comment;
#X text 146 293 comment;
#X text 717 279 comment;
#X obj 658 316 phasor~;
#X obj 497 318 phasor~;
#X obj 279 319 phasor~;
#X obj 301 346 osc~;
#X obj 91 312 phasor~;
#X obj 119 338 osc~;
#X obj 1800 -31 metro 900;
#X obj 697 446 *~ 0.9;
#X obj 413 456 delay 2000;
#X obj 1979 262 delay 3000;
#X floatatom 1510 125 5 0 0 0 - - -, f 5;
#X floatatom 1505 158 5 0 0 0 - - -, f 5;
#X floatatom 1505 198 5 0 0 0 - - -, f 5;
#X msg 360 462 85 10;
#X obj 1450 151 f;
#X obj 1451 193 f;
#X msg 1256 61 56;
#X msg 1261 94 60;
#X obj 877 77 delay 600;
#X obj 877 37 delay 600;
#X msg 1331 57 58;
#X msg 1328 90 60;
#X msg 1420 22 63;
#X msg 1422 49 65;
#X msg 1591 22 55;
#X msg 1551 27 60;
#X obj 861 -7 metro 3000;
#X obj 1676 122 / 12;
#X msg 1464 23 58;
#X msg 1702 67 4000;
#X obj 1339 -16 select 0 1 2 3 4 5 6 7 8;
#X msg 1375 22 58;
#X msg 1430 91 60;
#X msg 1646 17 50;
#X msg 1382 59 63;
#X msg 1386 94 60;
#X obj 360 373 tgl 15 0 empty empty empty 17 7 0 10 -262144 -1 -1 0
1;
#X obj 811 -19 tgl 15 0 empty empty empty 17 7 0 10 -262144 -1 -1 1
1;
#X obj 216 27 loadbang;
#X obj 1235 -94 bng 15 250 50 0 empty empty empty 17 7 0 10 -262144
-1 -1;
#X floatatom 1234 -18 5 0 0 0 - - -, f 5;
#X obj 1336 -41 random 9;
#X msg 403 490 0 10000;
#X floatatom 1393 596 5 0 200 0 - - -, f 5;
#X obj 1274 700 bob~;
#X obj 1393 618 / 25;
#X floatatom 1276 582 5 0 150 0 - - -, f 5;
#X obj 1276 604 mtof;
#X obj 1277 649 pack 0 50;
#X obj 1277 674 line~;
#X floatatom 1276 627 7 0 0 0 - - -, f 7;
#X obj 1392 646 line~;
#X obj 1309 439 vsl 15 128 0 127 0 0 empty empty empty 0 -9 0 10 -262144
-1 -1 2512 1;
#X obj 1424 428 vsl 15 128 0 80 0 0 empty empty empty 0 -9 0 10 -262144
-1 -1 7100 1;
#X obj 1272 805 dac~;
#X msg 1279 303 0 3000;
#X obj 1280 281 delay 500;
#X obj 281 626 *~;
#X obj 324 728 dbtorms;
#X msg 324 750 \$1 75;
#X obj 323 779 line~;
#X obj 660 720 vsl 15 128 0 90 0 0 empty empty empty 0 -9 0 10 -262144
-1 -1 12700 1;
#X obj 1498 670 dbtorms;
#X msg 1498 692 \$1 75;
#X obj 1497 721 line~;
#X obj 1574 540 vsl 15 128 0 99 0 0 empty empty empty 0 -9 0 10 -262144
-1 -1 4306 1;
#X obj 1285 760 *~;
#X msg 1249 252 95 10;
#X obj 1421 348 line;
#X obj 1411 314 bng 15 250 50 0 empty empty empty 17 7 0 10 -262144
-1 -1;
#X msg 1440 319 0 3000;
#X obj 1441 297 delay 500;
#X obj 1519 246 vsl 15 128 10 1 1 0 empty empty empty 0 -9 0 10 -262144
-1 -1 9500 1;
#X obj 1375 386 /;
#X obj 827 453 / 2;
#X obj 989 554 mtof;
#X obj 799 534 phasor~;
#X obj 1070 524 - 5;
#X obj 825 486 / 2;
#X obj 1156 760 dbtorms;
#X msg 1156 782 \$1 75;
#X obj 1155 811 line~;
#X obj 988 718 vsl 15 128 0 99 0 0 empty empty empty 0 -9 0 10 -262144
-1 -1 11200 1;
#X obj 1274 736 *~;
#X obj 900 540 osc~;
#X msg 1415 271 127 10;
#X connect 0 0 41 1;
#X connect 1 0 0 0;
#X connect 2 0 3 0;
#X connect 3 0 1 0;
#X connect 4 0 42 0;
#X connect 5 0 36 1;
#X connect 6 0 5 0;
#X connect 7 0 6 0;
#X connect 8 0 13 0;
#X connect 8 0 12 0;
#X connect 8 0 20 0;
#X connect 8 0 31 0;
#X connect 9 0 7 0;
#X connect 10 0 11 0;
#X connect 11 0 9 0;
#X connect 12 0 4 0;
#X connect 13 0 10 0;
#X connect 14 0 35 1;
#X connect 15 0 14 0;
#X connect 16 0 15 0;
#X connect 17 0 16 0;
#X connect 18 0 19 0;
#X connect 19 0 17 0;
#X connect 20 0 18 0;
#X connect 21 0 37 1;
#X connect 22 0 21 0;
#X connect 23 0 22 0;
#X connect 24 0 23 0;
#X connect 25 0 24 0;
#X connect 26 0 27 0;
#X connect 26 0 28 0;
#X connect 26 0 51 0;
#X connect 26 0 135 0;
#X connect 26 0 81 0;
#X connect 26 0 63 0;
#X connect 26 0 70 0;
#X connect 26 0 72 0;
#X connect 26 0 50 0;
#X connect 26 0 153 0;
#X connect 26 0 142 0;
#X connect 27 0 69 0;
#X connect 27 0 71 0;
#X connect 27 0 73 0;
#X connect 28 0 29 0;
#X connect 29 0 68 0;
#X connect 30 0 125 0;
#X connect 31 0 38 0;
#X connect 32 0 78 0;
#X connect 33 0 78 0;
#X connect 34 0 78 0;
#X connect 35 0 30 0;
#X connect 36 0 30 0;
#X connect 37 0 75 0;
#X connect 38 0 25 0;
#X connect 39 0 40 0;
#X connect 40 0 38 1;
#X connect 41 0 30 0;
#X connect 42 0 2 0;
#X connect 43 0 74 0;
#X connect 43 0 97 0;
#X connect 43 0 94 0;
#X connect 43 0 105 0;
#X connect 44 0 45 0;
#X connect 45 0 10 1;
#X connect 46 0 47 0;
#X connect 47 0 4 1;
#X connect 48 0 49 0;
#X connect 49 0 18 1;
#X connect 50 0 57 1;
#X connect 51 0 57 0;
#X connect 53 0 133 0;
#X connect 54 0 55 0;
#X connect 55 0 56 0;
#X connect 56 0 52 1;
#X connect 57 0 52 0;
#X connect 58 0 62 0;
#X connect 59 0 60 0;
#X connect 60 0 61 0;
#X connect 61 0 30 1;
#X connect 62 0 59 0;
#X connect 63 0 76 0;
#X connect 64 0 124 0;
#X connect 68 0 37 0;
#X connect 69 0 36 0;
#X connect 70 0 35 0;
#X connect 71 0 35 0;
#X connect 72 0 41 0;
#X connect 73 0 41 0;
#X connect 75 0 30 0;
#X connect 76 0 110 0;
#X connect 78 0 26 0;
#X connect 81 0 58 0;
#X connect 82 0 26 0;
#X connect 82 0 79 0;
#X connect 83 0 80 0;
#X connect 83 0 26 0;
#X connect 84 0 82 1;
#X connect 85 0 83 1;
#X connect 86 0 83 0;
#X connect 87 0 82 0;
#X connect 87 0 86 0;
#X connect 88 0 82 1;
#X connect 89 0 83 1;
#X connect 90 0 78 0;
#X connect 91 0 82 1;
#X connect 92 0 83 1;
#X connect 92 0 82 1;
#X connect 93 0 78 0;
#X connect 93 0 83 1;
#X connect 94 0 87 0;
#X connect 94 0 109 0;
#X connect 95 0 87 1;
#X connect 95 0 86 1;
#X connect 96 0 78 0;
#X connect 96 0 82 1;
#X connect 97 0 95 0;
#X connect 97 0 94 1;
#X connect 98 0 34 0;
#X connect 98 0 84 0;
#X connect 98 0 85 0;
#X connect 98 1 33 0;
#X connect 98 1 88 0;
#X connect 98 1 89 0;
#X connect 98 2 103 0;
#X connect 98 2 99 0;
#X connect 98 2 102 0;
#X connect 98 3 90 0;
#X connect 98 3 91 0;
#X connect 98 4 96 0;
#X connect 98 5 32 0;
#X connect 98 6 93 0;
#X connect 98 7 92 0;
#X connect 98 9 101 0;
#X connect 99 0 78 0;
#X connect 100 0 83 1;
#X connect 101 0 79 0;
#X connect 101 0 78 0;
#X connect 102 0 82 1;
#X connect 103 0 83 1;
#X connect 105 0 94 0;
#X connect 106 0 8 0;
#X connect 107 0 87 0;
#X connect 107 0 86 0;
#X connect 107 0 109 0;
#X connect 109 0 98 0;
#X connect 109 0 108 0;
#X connect 110 0 58 0;
#X connect 111 0 113 0;
#X connect 112 0 151 0;
#X connect 113 0 119 0;
#X connect 114 0 115 0;
#X connect 114 0 145 0;
#X connect 115 0 118 0;
#X connect 116 0 117 0;
#X connect 117 0 112 1;
#X connect 118 0 116 0;
#X connect 119 0 112 2;
#X connect 120 0 114 0;
#X connect 121 0 111 0;
#X connect 123 0 53 0;
#X connect 124 0 123 0;
#X connect 125 0 122 0;
#X connect 125 0 122 1;
#X connect 126 0 127 0;
#X connect 127 0 128 0;
#X connect 128 0 125 1;
#X connect 129 0 126 0;
#X connect 130 0 131 0;
#X connect 131 0 132 0;
#X connect 132 0 134 1;
#X connect 133 0 130 0;
#X connect 134 0 122 0;
#X connect 134 0 122 1;
#X connect 135 0 53 0;
#X connect 135 0 64 0;
#X connect 136 0 141 0;
#X connect 137 0 139 0;
#X connect 138 0 136 0;
#X connect 139 0 138 0;
#X connect 140 0 141 1;
#X connect 141 0 120 0;
#X connect 142 0 144 0;
#X connect 142 0 146 0;
#X connect 144 0 112 0;
#X connect 145 0 143 0;
#X connect 146 0 152 0;
#X connect 147 0 148 0;
#X connect 148 0 149 0;
#X connect 149 0 151 1;
#X connect 150 0 147 0;
#X connect 151 0 134 0;
#X connect 152 0 112 0;
#X connect 153 0 136 0;
#X connect 153 0 137 0;
